<svg width="24" height="25" viewBox="0 0 24 25" fill="none" xmlns="http://www.w3.org/2000/svg">
<g id="Icon">
<path id="Mask" fill-rule="evenodd" clip-rule="evenodd" d="M12 7.7207C13.104 7.7207 14 6.8247 14 5.7207C14 4.6167 13.104 3.7207 12 3.7207C10.896 3.7207 10 4.6167 10 5.7207C10 6.8247 10.896 7.7207 12 7.7207ZM12 10.7207C10.896 10.7207 10 11.6167 10 12.7207C10 13.8247 10.896 14.7207 12 14.7207C13.104 14.7207 14 13.8247 14 12.7207C14 11.6167 13.104 10.7207 12 10.7207ZM10 19.7207C10 18.6167 10.896 17.7207 12 17.7207C13.104 17.7207 14 18.6167 14 19.7207C14 20.8247 13.104 21.7207 12 21.7207C10.896 21.7207 10 20.8247 10 19.7207Z" fill="#9295A6"/>
</g>
</svg>
