<svg width="24" height="25" viewBox="0 0 24 25" fill="none" xmlns="http://www.w3.org/2000/svg">
<g id="Icon">
<path id="Mask" fill-rule="evenodd" clip-rule="evenodd" d="M13.4142 12.721L17.7072 8.42795C18.0982 8.03695 18.0982 7.40495 17.7072 7.01395C17.3162 6.62295 16.6842 6.62295 16.2933 7.01395L12.0002 11.307L7.70725 7.01395C7.31625 6.62295 6.68425 6.62295 6.29325 7.01395C5.90225 7.40495 5.90225 8.03695 6.29325 8.42795L10.5862 12.721L6.29325 17.014C5.90225 17.405 5.90225 18.037 6.29325 18.428C6.48825 18.623 6.74425 18.721 7.00025 18.721C7.25625 18.721 7.51225 18.623 7.70725 18.428L12.0002 14.135L16.2933 18.428C16.4882 18.623 16.7443 18.721 17.0002 18.721C17.2562 18.721 17.5122 18.623 17.7072 18.428C18.0982 18.037 18.0982 17.405 17.7072 17.014L13.4142 12.721Z" fill="#9295A6"/>
</g>
</svg>
