<svg width="24" height="25" viewBox="0 0 24 25" fill="none" xmlns="http://www.w3.org/2000/svg">
<g id="Icon">
<path id="Mask" fill-rule="evenodd" clip-rule="evenodd" d="M20.997 11.1947H21C21.551 11.1947 21.999 11.6407 22 12.1917C22.008 14.8627 20.975 17.3777 19.091 19.2717C17.208 21.1657 14.7 22.2127 12.029 22.2207H12C9.33905 22.2207 6.83605 21.1887 4.94905 19.3117C3.05505 17.4287 2.00805 14.9207 2.00005 12.2497C1.99205 9.5777 3.02505 7.0637 4.90905 5.1697C6.79205 3.2757 9.30005 2.2287 11.971 2.2207C12.766 2.2327 13.576 2.3127 14.352 2.4987C14.888 2.6287 15.219 3.1687 15.089 3.7057C14.96 4.2417 14.417 4.5717 13.883 4.4437C13.262 4.2937 12.603 4.2307 11.977 4.2207C9.84005 4.2267 7.83305 5.0647 6.32705 6.5797C4.82005 8.0947 3.99405 10.1067 4.00005 12.2437C4.00605 14.3807 4.84405 16.3867 6.35905 17.8937C7.86905 19.3947 9.87105 20.2207 12 20.2207H12.023C14.16 20.2147 16.167 19.3767 17.673 17.8617C19.18 16.3457 20.006 14.3347 20 12.1977C19.999 11.6457 20.445 11.1957 20.997 11.1947ZM8.29325 11.5138C8.68425 11.1228 9.31625 11.1228 9.70725 11.5138L11.9513 13.7578L18.2482 6.56182C18.6123 6.14882 19.2432 6.10482 19.6593 6.46882C20.0742 6.83182 20.1162 7.46382 19.7523 7.87982L12.7523 15.8798C12.5702 16.0878 12.3102 16.2108 12.0332 16.2208H12.0002C11.7353 16.2208 11.4812 16.1158 11.2933 15.9278L8.29325 12.9278C7.90225 12.5368 7.90225 11.9048 8.29325 11.5138Z" fill="#5367FF"/>
</g>
</svg>
