<svg width="197" height="61" viewBox="0 0 197 61" fill="none" xmlns="http://www.w3.org/2000/svg">
<g id="Icon">
<g id="Frame 1295">
<rect x="131" y="0.720703" width="66" height="60" rx="5" fill="#E2F2FF"/>
<g id="Frame 1294">
<path d="M131 5.7207C131 2.95928 133.239 0.720703 136 0.720703H197V60.7207H136C133.239 60.7207 131 58.4821 131 55.7207V5.7207Z" fill="#5367FF"/>
<g id="Component 5">
<path id="Mask" fill-rule="evenodd" clip-rule="evenodd" d="M169 26.7211H156C155.448 26.7211 155 26.2741 155 25.7211C155 25.1681 155.448 24.7211 156 24.7211H169.082L167.524 23.5111C167.088 23.1721 167.009 22.5431 167.348 22.1081C167.687 21.6711 168.316 21.5921 168.751 21.9311L172.613 24.9311C172.86 25.1221 173.002 25.4171 173 25.7301C172.998 26.0411 172.85 26.3341 172.6 26.5211L168.6 29.5211C168.42 29.6561 168.209 29.7211 168.001 29.7211C167.697 29.7211 167.396 29.5831 167.2 29.3211C166.869 28.8791 166.958 28.2521 167.4 27.9211L169 26.7211ZM159 33.7211H172C172.552 33.7211 173 34.1681 173 34.7211C173 35.2741 172.552 35.7211 172 35.7211H158.918L160.476 36.9311C160.912 37.2701 160.991 37.8991 160.652 38.3341C160.455 38.5881 160.16 38.7211 159.862 38.7211C159.647 38.7211 159.431 38.6531 159.249 38.5111L155.387 35.5111C155.14 35.3201 154.998 35.0251 155 34.7121C155.002 34.4011 155.15 34.1081 155.4 33.9211L159.4 30.9211C159.843 30.5901 160.469 30.6791 160.8 31.1211C161.131 31.5631 161.042 32.1901 160.6 32.5211L159 33.7211Z" fill="white"/>
</g>
</g>
</g>
</g>
</svg>
