<svg width="25" height="25" viewBox="0 0 25 25" fill="none" xmlns="http://www.w3.org/2000/svg">
<g id="Icon">
<path id="Mask" fill-rule="evenodd" clip-rule="evenodd" d="M21.497 11.6947H21.5C22.051 11.6947 22.499 12.1407 22.5 12.6917C22.508 15.3627 21.475 17.8777 19.591 19.7717C17.708 21.6657 15.2 22.7127 12.529 22.7207H12.5C9.83905 22.7207 7.33605 21.6887 5.44905 19.8117C3.55505 17.9287 2.50805 15.4207 2.50005 12.7497C2.49205 10.0777 3.52505 7.5637 5.40905 5.6697C7.29205 3.7757 9.80005 2.7287 12.471 2.7207C13.266 2.7327 14.076 2.8127 14.852 2.9987C15.388 3.1287 15.719 3.6687 15.589 4.2057C15.46 4.7417 14.917 5.0717 14.383 4.9437C13.762 4.7937 13.103 4.7307 12.477 4.7207C10.34 4.7267 8.33305 5.5647 6.82705 7.0797C5.32005 8.5947 4.49405 10.6067 4.50005 12.7437C4.50605 14.8807 5.34405 16.8867 6.85905 18.3937C8.36905 19.8947 10.371 20.7207 12.5 20.7207H12.523C14.66 20.7147 16.667 19.8767 18.173 18.3617C19.68 16.8457 20.506 14.8347 20.5 12.6977C20.499 12.1457 20.945 11.6957 21.497 11.6947ZM8.79325 12.0138C9.18425 11.6228 9.81625 11.6228 10.2073 12.0138L12.4513 14.2578L18.7482 7.06182C19.1122 6.64882 19.7432 6.60482 20.1593 6.96882C20.5743 7.33182 20.6162 7.96382 20.2523 8.37982L13.2523 16.3798C13.0703 16.5878 12.8103 16.7108 12.5332 16.7208H12.5002C12.2352 16.7208 11.9812 16.6158 11.7933 16.4278L8.79325 13.4278C8.40225 13.0368 8.40225 12.4048 8.79325 12.0138Z" fill="#5367FF"/>
</g>
</svg>
