<svg width="197" height="61" viewBox="0 0 197 61" fill="none" xmlns="http://www.w3.org/2000/svg">
<g id="Icon">
<g id="Frame 1295">
<rect x="131" y="0.408203" width="66" height="60" rx="5" fill="#E2F2FF"/>
<g id="Frame 1294">
<path d="M131 5.4082C131 2.64678 133.239 0.408203 136 0.408203H197V60.4082H136C133.239 60.4082 131 58.1696 131 55.4082V5.4082Z" fill="#5367FF"/>
<g id="Component 5">
<path id="Mask" fill-rule="evenodd" clip-rule="evenodd" d="M157.594 23.4085H170.221C172.304 23.4085 174 24.9915 174 26.9375V29.4085C174 29.9615 173.529 30.4085 172.947 30.4085C172.365 30.4085 171.895 29.9615 171.895 29.4085V26.9375C171.895 26.0955 171.144 25.4085 170.221 25.4085H157.594L158.955 26.7015C159.365 27.0925 159.365 27.7245 158.955 28.1155C158.75 28.3105 158.48 28.4085 158.211 28.4085C157.941 28.4085 157.672 28.3105 157.467 28.1155L154.309 25.1155C153.897 24.7245 153.897 24.0925 154.309 23.7015L157.467 20.7015C157.877 20.3105 158.543 20.3105 158.955 20.7015C159.365 21.0925 159.365 21.7245 158.955 22.1155L157.594 23.4085ZM169.045 32.7017C169.457 32.3107 170.122 32.3107 170.533 32.7017L173.691 35.7017C174.103 36.0927 174.103 36.7247 173.691 37.1157L170.533 40.1157C170.328 40.3107 170.059 40.4087 169.789 40.4087C169.52 40.4087 169.25 40.3107 169.045 40.1157C168.633 39.7247 168.633 39.0927 169.045 38.7017L170.406 37.4087H157.779C155.695 37.4087 154 35.8257 154 33.8797V31.4087C154 30.8557 154.472 30.4087 155.053 30.4087C155.634 30.4087 156.105 30.8557 156.105 31.4087V33.8797C156.105 34.7227 156.856 35.4087 157.779 35.4087H170.406L169.045 34.1157C168.633 33.7247 168.633 33.0927 169.045 32.7017Z" fill="white"/>
</g>
</g>
</g>
</g>
</svg>
