<svg width="24" height="25" viewBox="0 0 24 25" fill="none" xmlns="http://www.w3.org/2000/svg">
<g id="Icon">
<path id="Mask" fill-rule="evenodd" clip-rule="evenodd" d="M20 14.7207C20 15.2717 19.552 15.7207 19 15.7207H12.087H11.913H5C4.448 15.7207 4 15.2717 4 14.7207V6.7207C4 6.1697 4.448 5.7207 5 5.7207H19C19.552 5.7207 20 6.1697 20 6.7207V14.7207ZM19 3.7207H5C3.346 3.7207 2 5.0667 2 6.7207V14.7207C2 16.3747 3.346 17.7207 5 17.7207H11V19.7207H7C6.45 19.7207 6 20.1707 6 20.7207C6 21.2707 6.45 21.7207 7 21.7207H17C17.55 21.7207 18 21.2707 18 20.7207C18 20.1707 17.55 19.7207 17 19.7207H13V17.7207H19C20.654 17.7207 22 16.3747 22 14.7207V6.7207C22 5.0667 20.654 3.7207 19 3.7207Z" fill="#5367FF"/>
</g>
</svg>
