<svg width="24" height="25" viewBox="0 0 24 25" fill="none" xmlns="http://www.w3.org/2000/svg">
<g id="Icon">
<path id="Mask" fill-rule="evenodd" clip-rule="evenodd" d="M17.7363 21.6707C17.5867 21.6707 17.4361 21.6357 17.2979 21.5637L12.4692 19.0409L7.64151 21.5637C7.32143 21.7294 6.93506 21.701 6.64528 21.4889C6.35361 21.2768 6.20873 20.9179 6.27028 20.5627L7.1898 15.2331L3.28824 11.4594C3.02877 11.2085 2.93502 10.8316 3.04581 10.4869C3.15661 10.1441 3.45302 9.89312 3.81097 9.84198L9.20876 9.05788L11.6217 4.20366C11.9417 3.55972 12.9976 3.55972 13.3177 4.20366L15.7306 9.05788L21.1284 9.84198C21.4864 9.89312 21.7828 10.1441 21.8936 10.4869C22.0043 10.8316 21.9106 11.2085 21.6511 11.4594L17.7496 15.2331L18.6691 20.5627C18.7306 20.9179 18.5848 21.2768 18.2941 21.4889C18.1293 21.6101 17.9333 21.6707 17.7363 21.6707Z" fill="#5367FF"/>
</g>
</svg>
