<svg width="24" height="25" viewBox="0 0 24 25" fill="none" xmlns="http://www.w3.org/2000/svg">
<g id="Icon">
<path id="Mask" fill-rule="evenodd" clip-rule="evenodd" d="M19 18.7207H5C4.449 18.7207 4 18.2727 4 17.7207V7.9707L11.4 13.5207C11.578 13.6547 11.789 13.7207 12 13.7207C12.211 13.7207 12.422 13.6547 12.6 13.5207L20 7.9707V17.7207C20 18.2727 19.551 18.7207 19 18.7207ZM18.333 6.7207L12 11.4707L5.667 6.7207H18.333ZM19 4.7207H5C3.346 4.7207 2 6.0667 2 7.7207V17.7207C2 19.3747 3.346 20.7207 5 20.7207H19C20.654 20.7207 22 19.3747 22 17.7207V7.7207C22 6.0667 20.654 4.7207 19 4.7207Z" fill="#5367FF"/>
</g>
</svg>
