<svg width="24" height="25" viewBox="0 0 24 25" fill="none" xmlns="http://www.w3.org/2000/svg">
<g id="Icon">
<path id="icon" fill-rule="evenodd" clip-rule="evenodd" d="M15.4506 2.12434C16.5126 1.82089 17.6196 2.43588 17.923 3.49795C17.9741 3.67663 18 3.86156 18 4.04739V5.72166H20C21.1046 5.72166 22 6.61709 22 7.72166V19.7217C22 20.8262 21.1046 21.7217 20 21.7217H4C2.89543 21.7217 2 20.8262 2 19.7217H2.0267C2.00895 19.6141 2 19.5052 2 19.3959V7.47596C2 6.583 2.59195 5.79823 3.45056 5.55291L15.4506 2.12434ZM10.1401 19.7217H20V11.7217H18V15.9674C18 16.8603 17.408 17.6451 16.5494 17.8904L10.1401 19.7217ZM18 7.72166H20V9.72166H18V7.72166ZM4 7.47593V19.3959L16 15.9673V4.04736L4 7.47593ZM14 9.72166C14 10.2739 13.5523 10.7217 13 10.7217C12.4477 10.7217 12 10.2739 12 9.72166C12 9.16937 12.4477 8.72166 13 8.72166C13.5523 8.72166 14 9.16937 14 9.72166Z" fill="#9295A6"/>
</g>
</svg>
