<svg width="24" height="25" viewBox="0 0 24 25" fill="none" xmlns="http://www.w3.org/2000/svg">
<g id="Icon">
<path id="Mask" fill-rule="evenodd" clip-rule="evenodd" d="M10 5.7207C11.103 5.7207 12 6.6177 12 7.7207C12 8.8237 11.103 9.7207 10 9.7207C8.897 9.7207 8 8.8237 8 7.7207C8 6.6177 8.897 5.7207 10 5.7207ZM10 11.7207C12.206 11.7207 14 9.9267 14 7.7207C14 5.5147 12.206 3.7207 10 3.7207C7.794 3.7207 6 5.5147 6 7.7207C6 9.9267 7.794 11.7207 10 11.7207ZM10 13.7207C6.141 13.7207 3 16.8607 3 20.7207C3 21.2727 3.447 21.7207 4 21.7207C4.553 21.7207 5 21.2727 5 20.7207C5 17.9637 7.243 15.7207 10 15.7207C12.757 15.7207 15 17.9637 15 20.7207C15 21.2727 15.447 21.7207 16 21.7207C16.553 21.7207 17 21.2727 17 20.7207C17 16.8607 13.859 13.7207 10 13.7207ZM20 6.7207H21C21.55 6.7207 22 7.1707 22 7.7207C22 8.2707 21.55 8.7207 21 8.7207H20V9.7207C20 10.2707 19.55 10.7207 19 10.7207C18.45 10.7207 18 10.2707 18 9.7207V8.7207H17C16.45 8.7207 16 8.2707 16 7.7207C16 7.1707 16.45 6.7207 17 6.7207H18V5.7207C18 5.1707 18.45 4.7207 19 4.7207C19.55 4.7207 20 5.1707 20 5.7207V6.7207Z" fill="white"/>
</g>
</svg>
