<svg width="197" height="61" viewBox="0 0 197 61" fill="none" xmlns="http://www.w3.org/2000/svg">
<g id="Icon">
<g id="Frame 1295">
<rect x="131" y="0.720703" width="66" height="60" rx="5" fill="#E2F2FF"/>
<g id="Frame 1294">
<path d="M131 5.7207C131 2.95928 133.239 0.720703 136 0.720703H197V60.7207H136C133.239 60.7207 131 58.4821 131 55.7207V5.7207Z" fill="#5367FF"/>
<g id="Component 5">
<path id="Mask" fill-rule="evenodd" clip-rule="evenodd" d="M157.594 23.721H170.221C172.304 23.721 174 25.304 174 27.25V29.721C174 30.274 173.529 30.721 172.947 30.721C172.365 30.721 171.895 30.274 171.895 29.721V27.25C171.895 26.408 171.144 25.721 170.221 25.721H157.594L158.955 27.014C159.365 27.405 159.365 28.037 158.955 28.428C158.75 28.623 158.48 28.721 158.211 28.721C157.941 28.721 157.672 28.623 157.467 28.428L154.309 25.428C153.897 25.037 153.897 24.405 154.309 24.014L157.467 21.014C157.877 20.623 158.543 20.623 158.955 21.014C159.365 21.405 159.365 22.037 158.955 22.428L157.594 23.721ZM169.045 33.0142C169.457 32.6232 170.122 32.6232 170.533 33.0142L173.691 36.0142C174.103 36.4052 174.103 37.0372 173.691 37.4282L170.533 40.4282C170.328 40.6232 170.059 40.7212 169.789 40.7212C169.52 40.7212 169.25 40.6232 169.045 40.4282C168.633 40.0372 168.633 39.4052 169.045 39.0142L170.406 37.7212H157.779C155.695 37.7212 154 36.1382 154 34.1922V31.7212C154 31.1682 154.472 30.7212 155.053 30.7212C155.634 30.7212 156.105 31.1682 156.105 31.7212V34.1922C156.105 35.0352 156.856 35.7212 157.779 35.7212H170.406L169.045 34.4282C168.633 34.0372 168.633 33.4052 169.045 33.0142Z" fill="white"/>
</g>
</g>
</g>
</g>
</svg>
