<svg width="24" height="25" viewBox="0 0 24 25" fill="none" xmlns="http://www.w3.org/2000/svg">
<g id="Icon">
<path id="Mask" fill-rule="evenodd" clip-rule="evenodd" d="M14.329 20.7204C14.262 20.7204 14.193 20.7174 14.124 20.7104C13.244 20.6234 12.554 20.0024 12.364 19.1274L9.681 6.7354L6.918 13.1174C6.759 13.4834 6.398 13.7204 6 13.7204H3C2.447 13.7204 2 13.2724 2 12.7204C2 12.1674 2.447 11.7204 3 11.7204H5.344L7.85 5.9314C8.205 5.1154 8.987 4.6404 9.876 4.7294C10.756 4.8164 11.446 5.4374 11.636 6.3124L14.319 18.7044L17.082 12.3224C17.241 11.9564 17.601 11.7204 18 11.7204H21C21.553 11.7204 22 12.1674 22 12.7204C22 13.2724 21.553 13.7204 21 13.7204H18.656L16.15 19.5084C15.823 20.2614 15.122 20.7204 14.329 20.7204Z" fill="white"/>
</g>
</svg>
