<svg width="24" height="25" viewBox="0 0 24 25" fill="none" xmlns="http://www.w3.org/2000/svg">
<g id="Icon">
<path id="icon" fill-rule="evenodd" clip-rule="evenodd" d="M15.4506 2.12337C16.5126 1.81992 17.6196 2.4349 17.923 3.49697C17.9741 3.67565 18 3.86058 18 4.04641V5.72068H20C21.1046 5.72068 22 6.61611 22 7.72068V19.7207C22 20.8253 21.1046 21.7207 20 21.7207H4C2.89543 21.7207 2 20.8253 2 19.7207H2.0267C2.00895 19.6131 2 19.5042 2 19.395V7.47498C2 6.58202 2.59195 5.79725 3.45056 5.55194L15.4506 2.12337ZM10.1401 19.7207H20V11.7207H18V15.9664C18 16.8593 17.408 17.6441 16.5494 17.8894L10.1401 19.7207ZM18 7.72068H20V9.72068H18V7.72068ZM4 7.47496V19.3949L16 15.9664V4.04639L4 7.47496ZM14 9.72068C14 10.273 13.5523 10.7207 13 10.7207C12.4477 10.7207 12 10.273 12 9.72068C12 9.1684 12.4477 8.72068 13 8.72068C13.5523 8.72068 14 9.1684 14 9.72068Z" fill="#9295A6"/>
</g>
</svg>
