<svg width="197" height="61" viewBox="0 0 197 61" fill="none" xmlns="http://www.w3.org/2000/svg">
<g id="Icon">
<g id="Frame 1295">
<rect x="131" y="0.408203" width="66" height="60" rx="5" fill="#E2F2FF"/>
<g id="Frame 1294">
<path d="M131 5.4082C131 2.64678 133.239 0.408203 136 0.408203H197V60.4082H136C133.239 60.4082 131 58.1696 131 55.4082V5.4082Z" fill="#5367FF"/>
<g id="Component 5">
<path id="Mask" fill-rule="evenodd" clip-rule="evenodd" d="M168.382 32.4082H160.764L159.127 26.4082H171.382L168.382 32.4082ZM173.083 25.3562C172.716 24.7622 172.08 24.4082 171.382 24.4082H158.582L157.965 22.1452C157.846 21.7102 157.451 21.4082 157 21.4082H155C154.447 21.4082 154 21.8562 154 22.4082C154 22.9602 154.447 23.4082 155 23.4082H156.236L159.035 33.6712C159.154 34.1062 159.549 34.4082 160 34.4082H169C169.379 34.4082 169.725 34.1942 169.895 33.8552L173.171 27.3022C173.484 26.6772 173.45 25.9502 173.083 25.3562ZM159.5 36.4082C158.672 36.4082 158 37.0792 158 37.9082C158 38.7372 158.672 39.4082 159.5 39.4082C160.328 39.4082 161 38.7372 161 37.9082C161 37.0792 160.328 36.4082 159.5 36.4082ZM168 37.9082C168 37.0792 168.672 36.4082 169.5 36.4082C170.328 36.4082 171 37.0792 171 37.9082C171 38.7372 170.328 39.4082 169.5 39.4082C168.672 39.4082 168 38.7372 168 37.9082Z" fill="white"/>
</g>
</g>
</g>
</g>
</svg>
