<svg width="24" height="25" viewBox="0 0 24 25" fill="none" xmlns="http://www.w3.org/2000/svg">
<g id="Icon">
<path id="Mask" fill-rule="evenodd" clip-rule="evenodd" d="M19.002 4.7457C19.552 4.7487 19.997 5.1947 19.997 5.7447L20 10.7197C20.001 11.2717 19.553 11.7207 19.001 11.7207H19C18.448 11.7207 18.001 11.2727 18 10.7217L17.998 8.1367L14.707 11.4277C14.512 11.6227 14.256 11.7207 14 11.7207C13.745 11.7207 13.489 11.6227 13.293 11.4277C12.903 11.0367 12.903 10.4037 13.293 10.0137L16.573 6.7337L13.996 6.7207C13.443 6.7177 12.997 6.2667 13 5.7157C13.003 5.1647 13.451 4.7207 14 4.7207H14.005L19.002 4.7457ZM9.29302 14.0135C9.68401 13.6225 10.316 13.6225 10.707 14.0135C11.098 14.4045 11.098 15.0365 10.707 15.4275L7.41501 18.7195L10 18.7205C10.553 18.7205 11 19.1685 11 19.7215C10.999 20.2735 10.552 20.7205 10 20.7205H9.99901L5.02402 20.7175C4.47402 20.7175 4.02802 20.2725 4.02502 19.7225L4.00002 14.7255C3.99702 14.1735 4.44302 13.7235 4.99502 13.7205H5.00002C5.55001 13.7205 5.99701 14.1645 6.00002 14.7155L6.01302 17.2935L9.29302 14.0135Z" fill="#9295A6"/>
</g>
</svg>
