<svg width="24" height="25" viewBox="0 0 24 25" fill="none" xmlns="http://www.w3.org/2000/svg">
<g id="Icon">
<path id="Mask" fill-rule="evenodd" clip-rule="evenodd" d="M19.002 4.74619C19.552 4.74919 19.997 5.19519 19.997 5.74519L20 10.7202C20.001 11.2722 19.553 11.7212 19.001 11.7212H19C18.448 11.7212 18.001 11.2732 18 10.7222L17.998 8.13719L14.707 11.4282C14.512 11.6232 14.256 11.7212 14 11.7212C13.745 11.7212 13.489 11.6232 13.293 11.4282C12.903 11.0372 12.903 10.4042 13.293 10.0142L16.573 6.73419L13.996 6.72119C13.443 6.71819 12.997 6.26719 13 5.71619C13.003 5.16519 13.451 4.72119 14 4.72119H14.005L19.002 4.74619ZM9.29302 14.014C9.68401 13.623 10.316 13.623 10.707 14.014C11.098 14.405 11.098 15.037 10.707 15.428L7.41501 18.72L10 18.721C10.553 18.721 11 19.169 11 19.722C10.999 20.274 10.552 20.721 10 20.721H9.99901L5.02402 20.718C4.47402 20.718 4.02802 20.273 4.02502 19.723L4.00002 14.726C3.99702 14.174 4.44302 13.724 4.99502 13.721H5.00002C5.55001 13.721 5.99701 14.165 6.00002 14.716L6.01302 17.294L9.29302 14.014Z" fill="#9295A6"/>
</g>
</svg>
