<svg width="197" height="61" viewBox="0 0 197 61" fill="none" xmlns="http://www.w3.org/2000/svg">
<g id="Icon">
<g id="Frame 1295">
<rect x="131" y="0.720703" width="66" height="60" rx="5" fill="#E2F2FF"/>
<g id="Frame 1294">
<path d="M131 5.7207C131 2.95928 133.239 0.720703 136 0.720703H197V60.7207H136C133.239 60.7207 131 58.4821 131 55.7207V5.7207Z" fill="#5367FF"/>
<g id="Component 5">
<path id="Mask" fill-rule="evenodd" clip-rule="evenodd" d="M168.382 32.7207H160.764L159.127 26.7207H171.382L168.382 32.7207ZM173.083 25.6687C172.716 25.0747 172.08 24.7207 171.382 24.7207H158.582L157.965 22.4577C157.846 22.0227 157.451 21.7207 157 21.7207H155C154.447 21.7207 154 22.1687 154 22.7207C154 23.2727 154.447 23.7207 155 23.7207H156.236L159.035 33.9837C159.154 34.4187 159.549 34.7207 160 34.7207H169C169.379 34.7207 169.725 34.5067 169.895 34.1677L173.171 27.6147C173.484 26.9897 173.45 26.2627 173.083 25.6687ZM159.5 36.7207C158.672 36.7207 158 37.3917 158 38.2207C158 39.0497 158.672 39.7207 159.5 39.7207C160.328 39.7207 161 39.0497 161 38.2207C161 37.3917 160.328 36.7207 159.5 36.7207ZM168 38.2207C168 37.3917 168.672 36.7207 169.5 36.7207C170.328 36.7207 171 37.3917 171 38.2207C171 39.0497 170.328 39.7207 169.5 39.7207C168.672 39.7207 168 39.0497 168 38.2207Z" fill="white"/>
</g>
</g>
</g>
</g>
</svg>
