<svg width="24" height="25" viewBox="0 0 24 25" fill="none" xmlns="http://www.w3.org/2000/svg">
<g id="Icon">
<path id="Mask" fill-rule="evenodd" clip-rule="evenodd" d="M14.329 20.7214C14.262 20.7214 14.193 20.7184 14.124 20.7114C13.244 20.6244 12.554 20.0034 12.364 19.1284L9.681 6.73637L6.918 13.1184C6.759 13.4844 6.398 13.7214 6 13.7214H3C2.447 13.7214 2 13.2734 2 12.7214C2 12.1684 2.447 11.7214 3 11.7214H5.344L7.85 5.93237C8.205 5.11637 8.987 4.64137 9.876 4.73037C10.756 4.81737 11.446 5.43837 11.636 6.31337L14.319 18.7054L17.082 12.3234C17.241 11.9574 17.601 11.7214 18 11.7214H21C21.553 11.7214 22 12.1684 22 12.7214C22 13.2734 21.553 13.7214 21 13.7214H18.656L16.15 19.5094C15.823 20.2624 15.122 20.7214 14.329 20.7214Z" fill="#5367FF"/>
</g>
</svg>
