<svg width="197" height="61" viewBox="0 0 197 61" fill="none" xmlns="http://www.w3.org/2000/svg">
<g id="Icon">
<g id="Frame 1295">
<rect x="131" y="0.408203" width="66" height="60" rx="5" fill="#E2F2FF"/>
<g id="Frame 1294">
<path d="M131 5.4082C131 2.64678 133.239 0.408203 136 0.408203H197V60.4082H136C133.239 60.4082 131 58.1696 131 55.4082V5.4082Z" fill="#5367FF"/>
<g id="Component 5">
<path id="Mask" fill-rule="evenodd" clip-rule="evenodd" d="M169 26.4086H156C155.448 26.4086 155 25.9616 155 25.4086C155 24.8556 155.448 24.4086 156 24.4086H169.082L167.524 23.1986C167.088 22.8596 167.009 22.2306 167.348 21.7956C167.687 21.3586 168.316 21.2796 168.751 21.6186L172.613 24.6186C172.86 24.8096 173.002 25.1046 173 25.4176C172.998 25.7286 172.85 26.0216 172.6 26.2086L168.6 29.2086C168.42 29.3436 168.209 29.4086 168.001 29.4086C167.697 29.4086 167.396 29.2706 167.2 29.0086C166.869 28.5666 166.958 27.9396 167.4 27.6086L169 26.4086ZM159 33.4086H172C172.552 33.4086 173 33.8556 173 34.4086C173 34.9616 172.552 35.4086 172 35.4086H158.918L160.476 36.6186C160.912 36.9576 160.991 37.5866 160.652 38.0216C160.455 38.2756 160.16 38.4086 159.862 38.4086C159.647 38.4086 159.431 38.3406 159.249 38.1986L155.387 35.1986C155.14 35.0076 154.998 34.7126 155 34.3996C155.002 34.0886 155.15 33.7956 155.4 33.6086L159.4 30.6086C159.843 30.2776 160.469 30.3666 160.8 30.8086C161.131 31.2506 161.042 31.8776 160.6 32.2086L159 33.4086Z" fill="white"/>
</g>
</g>
</g>
</g>
</svg>
