<svg width="24" height="25" viewBox="0 0 24 25" fill="none" xmlns="http://www.w3.org/2000/svg">
<g id="Icon">
<path id="Mask" d="M8.40565 9.91948C8.04222 9.61605 7.50221 9.66577 7.19878 10.0292C6.89535 10.3926 6.94506 10.9335 7.3085 11.2361L11.5943 15.5218C11.6346 15.5561 11.6826 15.5724 11.7271 15.5981C11.7623 15.6187 11.7931 15.6427 11.8317 15.6581C11.932 15.6976 12.0366 15.7207 12.1428 15.7207C12.2491 15.7207 12.3537 15.6976 12.454 15.6581C12.4926 15.6427 12.5234 15.6187 12.5586 15.5981C12.6031 15.5724 12.6511 15.5561 12.6914 15.5218L16.9772 11.2361C17.3415 10.9335 17.3903 10.3926 17.0869 10.0292C16.7843 9.66577 16.2443 9.61605 15.88 9.91948L13 13.0335L12.1429 13.8906L11.2838 13.0314L8.40565 9.91948Z" fill="#9295A6"/>
</g>
</svg>
