<svg width="24" height="24" viewBox="0 0 24 24" fill="none" xmlns="http://www.w3.org/2000/svg">
<g id="Fill=code-download">
<path id="Mask" fill-rule="evenodd" clip-rule="evenodd" d="M21.7795 11.3731L16.9515 5.37306C16.6035 4.94306 15.9745 4.87306 15.5455 5.22106C15.1145 5.56706 15.0475 6.19606 15.3925 6.62706L19.7085 11.9891L15.2315 17.3591C14.8785 17.7841 14.9355 18.4151 15.3595 18.7691C15.5475 18.9241 15.7735 19.0001 15.9995 19.0001C16.2865 19.0001 16.5705 18.8781 16.7685 18.6411L21.7685 12.6411C22.0735 12.2741 22.0785 11.7441 21.7795 11.3731ZM4.29216 12.0108L8.76916 6.64076C9.12216 6.21576 9.06416 5.58476 8.64116 5.23176C8.21516 4.87876 7.58616 4.93576 7.23116 5.35976L2.23116 11.3598C1.92716 11.7258 1.92216 12.2558 2.22116 12.6268L7.04916 18.6268C7.24716 18.8718 7.53616 18.9998 7.82916 18.9998C8.04916 18.9998 8.27116 18.9278 8.45516 18.7798C8.88616 18.4328 8.95316 17.8038 8.60716 17.3728L4.29216 12.0108ZM14.306 11.3842C14.702 11.0002 15.337 11.0132 15.72 11.4092C16.103 11.8062 16.092 12.4392 15.695 12.8232L12.695 15.7202C12.501 15.9062 12.25 16.0002 12 16.0002C11.744 16.0002 11.489 15.9022 11.293 15.7072L8.29299 12.7072C7.90299 12.3162 7.90299 11.6832 8.29299 11.2932C8.68399 10.9022 9.31699 10.9022 9.70699 11.2932L11 12.5852V8.00024C11 7.44724 11.448 7.00024 12 7.00024C12.553 7.00024 13 7.44724 13 8.00024V12.6442L14.306 11.3842Z" fill="#343C44"/>
</g>
</svg>
