<svg width="24" height="24" viewBox="0 0 24 24" fill="none" xmlns="http://www.w3.org/2000/svg">
<g id="Fill=loader">
<path id="Mask" fill-rule="evenodd" clip-rule="evenodd" d="M11 3C11 2.447 11.448 2 12 2C12.552 2 13 2.447 13 3V5C13 5.553 12.552 6 12 6C11.448 6 11 5.553 11 5V3ZM19 11H21C21.552 11 22 11.447 22 12C22 12.553 21.552 13 21 13H19C18.448 13 18 12.553 18 12C18 11.447 18.448 11 19 11ZM6 12C6 11.447 5.552 11 5 11H3C2.448 11 2 11.447 2 12C2 12.553 2.448 13 3 13H5C5.552 13 6 12.553 6 12ZM4.8069 5.05334C5.1919 4.65734 5.8239 4.64434 6.2209 5.02834L7.6599 6.41834C8.0569 6.80134 8.0679 7.43534 7.6839 7.83234C7.4879 8.03534 7.2269 8.13734 6.9649 8.13734C6.7149 8.13734 6.4649 8.04534 6.2699 7.85734L4.8309 6.46734C4.4339 6.08434 4.4229 5.45034 4.8069 5.05334ZM17.0352 8.1377C17.2852 8.1377 17.5352 8.0447 17.7302 7.8577L19.1692 6.4677C19.5662 6.0837 19.5772 5.4497 19.1932 5.0537C18.8102 4.6577 18.1782 4.6447 17.7792 5.0287L16.3402 6.4177C15.9432 6.8017 15.9322 7.4357 16.3162 7.8317C16.5122 8.0347 16.7732 8.1377 17.0352 8.1377ZM11 19C11 18.447 11.448 18 12 18C12.552 18 13 18.447 13 19V21C13 21.553 12.552 22 12 22C11.448 22 11 21.553 11 21V19ZM17.7302 16.1426C17.3332 15.7596 16.7002 15.7716 16.3162 16.1676C15.9322 16.5646 15.9432 17.1986 16.3402 17.5816L17.7792 18.9716C17.9742 19.1596 18.2242 19.2516 18.4742 19.2516C18.7362 19.2516 18.9972 19.1496 19.1932 18.9466C19.5772 18.5496 19.5662 17.9156 19.1692 17.5326L17.7302 16.1426ZM4.831 17.5326L6.27 16.1426C6.668 15.7596 7.301 15.7716 7.684 16.1676C8.068 16.5646 8.057 17.1986 7.66 17.5816L6.221 18.9716C6.026 19.1596 5.776 19.2516 5.526 19.2516C5.264 19.2516 5.003 19.1496 4.807 18.9466C4.423 18.5496 4.434 17.9156 4.831 17.5326Z" fill="#343C44"/>
</g>
</svg>
