<svg width="24" height="24" viewBox="0 0 24 24" fill="none" xmlns="http://www.w3.org/2000/svg">
<g id="Fill=eye-off">
<path id="Mask" fill-rule="evenodd" clip-rule="evenodd" d="M19.4068 17.993L20.7068 19.293C21.0978 19.684 21.0978 20.316 20.7068 20.707C20.5118 20.902 20.2558 21 19.9998 21C19.7438 21 19.4878 20.902 19.2928 20.707L16.5858 18L15.9998 17.414L14.6548 16.069L14.5858 16L12.0835 13.4977C12.0558 13.4992 12.028 13.5 12 13.5C11.173 13.5 10.5 12.827 10.5 12C10.5 11.972 10.5008 11.9442 10.5023 11.9165L7.28276 8.69701L5.53176 6.94601L3.29276 4.70701C2.90176 4.31601 2.90176 3.68401 3.29276 3.29301C3.68376 2.90201 4.31576 2.90201 4.70676 3.29301L6.41976 5.00601L7.88476 6.47101L11.9161 10.5023C11.9439 10.5008 11.9718 10.5 12 10.5C12.827 10.5 13.5 11.173 13.5 12C13.5 12.0282 13.4992 12.0561 13.4977 12.0839L17.4138 16L19.4068 17.993ZM8.59295 5.76425L11.39 8.56125C11.589 8.52625 11.791 8.50025 12 8.50025C13.93 8.50025 15.5 10.0703 15.5 12.0003C15.5 12.2093 15.474 12.4113 15.439 12.6103L18.121 15.2933L18.955 16.1273C20.477 14.7393 21.453 13.2203 21.868 12.4973C22.044 12.1893 22.044 11.8103 21.868 11.5023C21.23 10.3903 17.706 4.81625 11.73 5.00325C10.546 5.03425 9.47395 5.28925 8.50195 5.67425L8.59295 5.76425ZM13.948 16.7771L15.293 18.1211L15.498 18.3261C14.526 18.7111 13.455 18.9661 12.271 18.9961C12.189 18.9991 12.106 19.0001 12.025 19.0001C6.162 19.0001 2.762 13.5951 2.132 12.4971C1.956 12.1891 1.956 11.8101 2.132 11.5021C2.547 10.7801 3.523 9.26111 5.045 7.87311L6.576 9.40511L8.562 11.3901C8.526 11.5891 8.5 11.7911 8.5 12.0001C8.5 13.9301 10.07 15.5001 12 15.5001C12.209 15.5001 12.411 15.4741 12.61 15.4381L13.879 16.7071L13.948 16.7771Z" fill="#343C44"/>
</g>
</svg>
