<svg width="24" height="24" viewBox="0 0 24 24" fill="none" xmlns="http://www.w3.org/2000/svg">
<g id="Fill=phone-off">
<path id="Mask" fill-rule="evenodd" clip-rule="evenodd" d="M9.27349 12.0548C8.97149 11.6088 8.70149 11.1388 8.47449 10.6448C9.71349 9.99476 9.71749 9.99176 9.85449 9.84976C10.0875 9.60676 10.1825 9.26176 10.1075 8.93376L8.73849 2.96976C8.66149 2.63376 8.41749 2.36176 8.09149 2.24876C7.85449 2.16576 7.60849 2.10476 7.36549 2.06576C7.11649 2.02276 6.86049 1.99976 6.59949 1.99976C4.06349 1.99976 2.00049 4.06376 2.00049 6.59976C2.00049 10.1658 3.22949 13.4438 5.27149 16.0568L9.27349 12.0548ZM21.9354 16.6388C21.8954 16.3888 21.8324 16.1438 21.7504 15.9088C21.6384 15.5828 21.3664 15.3388 21.0304 15.2618L15.0664 13.8928C14.7374 13.8198 14.3934 13.9118 14.1504 14.1458L14.1498 14.1463C14.0073 14.2828 14.0034 14.2865 13.3544 15.5278C12.8604 15.3028 12.3894 15.0328 11.9424 14.7288L7.94336 18.7288C10.5564 20.7708 13.8334 21.9998 17.4004 21.9998C19.9364 21.9998 21.9994 19.9368 21.9994 17.4008C21.9994 17.1418 21.9774 16.8868 21.9354 16.6388ZM18.4825 4.26076C18.8305 3.91276 19.3925 3.91276 19.7395 4.26076C20.0875 4.60776 20.0875 5.16976 19.7395 5.51776L5.51749 19.7398C5.17049 20.0868 4.60749 20.0868 4.26049 19.7398C4.08749 19.5668 4.00049 19.3388 4.00049 19.1118C4.00049 18.8838 4.08749 18.6568 4.26049 18.4828L18.4825 4.26076Z" fill="#343C44"/>
</g>
</svg>
