<svg width="24" height="24" viewBox="0 0 24 24" fill="none" xmlns="http://www.w3.org/2000/svg">
<g id="Fill=brush">
<path id="Mask" fill-rule="evenodd" clip-rule="evenodd" d="M16.3759 4.66785C17.1529 3.89085 18.4229 3.75285 19.2619 4.46085C19.7549 4.87785 20.0079 5.46285 19.9999 6.05685C20.0069 6.59385 19.8019 7.12285 19.3979 7.52685L12.9129 14.0178C12.7299 14.2018 12.4319 14.2018 12.2479 14.0178L9.97491 11.7428C9.79091 11.5588 9.79091 11.2598 9.97491 11.0758L16.3759 4.66785ZM4.05408 16.4138C4.08608 14.5778 5.32908 12.9178 7.12408 12.5478C10.0471 11.9448 12.4621 14.7418 11.1671 17.7378C10.5831 19.0878 9.19608 19.9148 7.72708 19.9408H7.72508L4.47908 19.9998C4.21308 20.0048 3.99508 19.7868 4.00008 19.5208L4.05408 16.4138Z" fill="#343C44"/>
</g>
</svg>
