<svg width="24" height="24" viewBox="0 0 24 24" fill="none" xmlns="http://www.w3.org/2000/svg">
<g id="Component 5">
<path id="Mask" fill-rule="evenodd" clip-rule="evenodd" d="M5.59389 5.00025H18.2211C20.3042 5.00025 21.9999 6.58325 21.9999 8.52925V11.0002C21.9999 11.5532 21.5294 12.0002 20.9473 12.0002C20.3652 12.0002 19.8947 11.5532 19.8947 11.0002V8.52925C19.8947 7.68725 19.1442 7.00025 18.2211 7.00025H5.59389L6.95492 8.29325C7.36544 8.68425 7.36544 9.31625 6.95492 9.70725C6.74966 9.90225 6.48019 10.0002 6.21072 10.0002C5.94125 10.0002 5.67178 9.90225 5.46652 9.70725L2.30868 6.70725C1.89711 6.31625 1.89711 5.68425 2.30868 5.29325L5.46652 2.29325C5.87704 1.90225 6.54335 1.90225 6.95492 2.29325C7.36544 2.68425 7.36544 3.31625 6.95492 3.70725L5.59389 5.00025ZM17.045 14.2935C17.4566 13.9025 18.1218 13.9025 18.5334 14.2935L21.6913 17.2935C22.1028 17.6845 22.1028 18.3165 21.6913 18.7075L18.5334 21.7075C18.3282 21.9025 18.0587 22.0005 17.7892 22.0005C17.5198 22.0005 17.2503 21.9025 17.045 21.7075C16.6335 21.3165 16.6335 20.6845 17.045 20.2935L18.4061 19.0005H5.77889C3.69471 19.0005 2 17.4175 2 15.4715V13.0005C2 12.4475 2.47157 12.0005 3.05262 12.0005C3.63366 12.0005 4.10523 12.4475 4.10523 13.0005V15.4715C4.10523 16.3145 4.85574 17.0005 5.77889 17.0005H18.4061L17.045 15.7075C16.6335 15.3165 16.6335 14.6845 17.045 14.2935Z" fill="white"/>
</g>
</svg>
