<svg width="24" height="25" viewBox="0 0 24 25" fill="none" xmlns="http://www.w3.org/2000/svg">
<g id="Icon">
<path id="Mask" d="M8.40565 9.69878C8.04222 9.39535 7.50221 9.44506 7.19878 9.8085C6.89535 10.1719 6.94506 10.7128 7.3085 11.0154L11.5943 15.3011C11.6346 15.3354 11.6826 15.3517 11.7271 15.3774C11.7623 15.398 11.7931 15.422 11.8317 15.4374C11.932 15.4769 12.0366 15.5 12.1428 15.5C12.2491 15.5 12.3537 15.4769 12.454 15.4374C12.4926 15.422 12.5234 15.398 12.5586 15.3774C12.6031 15.3517 12.6511 15.3354 12.6914 15.3011L16.9772 11.0154C17.3415 10.7128 17.3903 10.1719 17.0869 9.8085C16.7843 9.44506 16.2443 9.39535 15.88 9.69878L13 12.8128L12.1429 13.6699L11.2838 12.8107L8.40565 9.69878Z" fill="#9295A6"/>
</g>
</svg>
