<svg width="197" height="60" viewBox="0 0 197 60" fill="none" xmlns="http://www.w3.org/2000/svg">
<g id="Property 1=Default">
<g id="Frame 1295">
<rect x="131" width="66" height="60" rx="5" fill="#E2F2FF"/>
<g id="Frame 1294">
<path d="M131 5C131 2.23858 133.239 0 136 0H197V60H136C133.239 60 131 57.7614 131 55V5Z" fill="#5367FF"/>
<g id="Component 5">
<path id="Mask" fill-rule="evenodd" clip-rule="evenodd" d="M157.594 23.0003H170.221C172.304 23.0003 174 24.5833 174 26.5293V29.0002C174 29.5532 173.529 30.0002 172.947 30.0002C172.365 30.0002 171.895 29.5532 171.895 29.0002V26.5293C171.895 25.6873 171.144 25.0002 170.221 25.0002H157.594L158.955 26.2933C159.365 26.6842 159.365 27.3163 158.955 27.7073C158.75 27.9023 158.48 28.0002 158.211 28.0002C157.941 28.0002 157.672 27.9023 157.467 27.7073L154.309 24.7073C153.897 24.3163 153.897 23.6843 154.309 23.2933L157.467 20.2932C157.877 19.9022 158.543 19.9022 158.955 20.2932C159.365 20.6842 159.365 21.3162 158.955 21.7072L157.594 23.0003ZM169.045 32.2935C169.457 31.9025 170.122 31.9025 170.533 32.2935L173.691 35.2935C174.103 35.6845 174.103 36.3165 173.691 36.7075L170.533 39.7075C170.328 39.9025 170.059 40.0005 169.789 40.0005C169.52 40.0005 169.25 39.9025 169.045 39.7075C168.633 39.3165 168.633 38.6845 169.045 38.2935L170.406 37.0005H157.779C155.695 37.0005 154 35.4175 154 33.4715V31.0005C154 30.4475 154.472 30.0005 155.053 30.0005C155.634 30.0005 156.105 30.4475 156.105 31.0005V33.4715C156.105 34.3145 156.856 35.0005 157.779 35.0005H170.406L169.045 33.7075C168.633 33.3165 168.633 32.6845 169.045 32.2935Z" fill="white"/>
</g>
</g>
</g>
</g>
</svg>
