<svg width="197" height="60" viewBox="0 0 197 60" fill="none" xmlns="http://www.w3.org/2000/svg">
<g id="Property 1=Active">
<g id="Frame 1295">
<rect width="197" height="60" rx="5" fill="#E2F2FF"/>
<path id="Convert" d="M43.6144 28H42.0292C41.9355 27.544 41.7714 27.1435 41.537 26.7983C41.3069 26.4531 41.0257 26.1634 40.6933 25.929C40.3651 25.6903 40.0008 25.5114 39.6002 25.392C39.1997 25.2727 38.782 25.2131 38.3474 25.2131C37.5548 25.2131 36.8367 25.4134 36.1933 25.8139C35.5541 26.2145 35.0448 26.8047 34.6656 27.5845C34.2906 28.3643 34.1031 29.321 34.1031 30.4545C34.1031 31.5881 34.2906 32.5447 34.6656 33.3246C35.0448 34.1044 35.5541 34.6946 36.1933 35.0952C36.8367 35.4957 37.5548 35.696 38.3474 35.696C38.782 35.696 39.1997 35.6364 39.6002 35.517C40.0008 35.3977 40.3651 35.2209 40.6933 34.9865C41.0257 34.7479 41.3069 34.456 41.537 34.1108C41.7714 33.7614 41.9355 33.3608 42.0292 32.9091H43.6144C43.4951 33.5781 43.2778 34.1768 42.9624 34.7053C42.6471 35.2337 42.2551 35.6832 41.7863 36.054C41.3176 36.4205 40.7913 36.6996 40.2075 36.8913C39.6279 37.0831 39.0079 37.179 38.3474 37.179C37.2309 37.179 36.238 36.9062 35.3687 36.3608C34.4994 35.8153 33.8154 35.0398 33.3169 34.0341C32.8183 33.0284 32.569 31.8352 32.569 30.4545C32.569 29.0739 32.8183 27.8807 33.3169 26.875C33.8154 25.8693 34.4994 25.0938 35.3687 24.5483C36.238 24.0028 37.2309 23.7301 38.3474 23.7301C39.0079 23.7301 39.6279 23.826 40.2075 24.0178C40.7913 24.2095 41.3176 24.4908 41.7863 24.8615C42.2551 25.228 42.6471 25.6754 42.9624 26.2038C43.2778 26.728 43.4951 27.3267 43.6144 28ZM49.9601 37.2045C49.0738 37.2045 48.2961 36.9936 47.627 36.5717C46.9623 36.1499 46.4424 35.5597 46.0674 34.8011C45.6966 34.0426 45.5113 33.1562 45.5113 32.142C45.5113 31.1193 45.6966 30.2266 46.0674 29.4638C46.4424 28.701 46.9623 28.1087 47.627 27.6868C48.2961 27.2649 49.0738 27.054 49.9601 27.054C50.8465 27.054 51.6221 27.2649 52.2868 27.6868C52.9559 28.1087 53.4758 28.701 53.8465 29.4638C54.2215 30.2266 54.409 31.1193 54.409 32.142C54.409 33.1562 54.2215 34.0426 53.8465 34.8011C53.4758 35.5597 52.9559 36.1499 52.2868 36.5717C51.6221 36.9936 50.8465 37.2045 49.9601 37.2045ZM49.9601 35.8494C50.6334 35.8494 51.1874 35.6768 51.6221 35.3317C52.0567 34.9865 52.3785 34.5327 52.5873 33.9702C52.7961 33.4077 52.9005 32.7983 52.9005 32.142C52.9005 31.4858 52.7961 30.8743 52.5873 30.3075C52.3785 29.7408 52.0567 29.2827 51.6221 28.9332C51.1874 28.5838 50.6334 28.4091 49.9601 28.4091C49.2868 28.4091 48.7329 28.5838 48.2982 28.9332C47.8635 29.2827 47.5418 29.7408 47.333 30.3075C47.1242 30.8743 47.0198 31.4858 47.0198 32.142C47.0198 32.7983 47.1242 33.4077 47.333 33.9702C47.5418 34.5327 47.8635 34.9865 48.2982 35.3317C48.7329 35.6768 49.2868 35.8494 49.9601 35.8494ZM58.2203 31.0938V37H56.7117V27.1818H58.1691V28.7159H58.297C58.5271 28.2173 58.8765 27.8168 59.3453 27.5142C59.814 27.2074 60.4191 27.054 61.1606 27.054C61.8254 27.054 62.407 27.1903 62.9056 27.4631C63.4042 27.7315 63.792 28.1406 64.069 28.6903C64.346 29.2358 64.4845 29.9261 64.4845 30.7614V37H62.9759V30.8636C62.9759 30.0923 62.7757 29.4915 62.3751 29.0611C61.9745 28.6264 61.4248 28.4091 60.7259 28.4091C60.2444 28.4091 59.814 28.5135 59.4347 28.7223C59.0597 28.9311 58.7636 29.2358 58.5463 29.6364C58.3289 30.0369 58.2203 30.5227 58.2203 31.0938ZM74.9179 27.1818L71.2872 37H69.7531L66.1224 27.1818H67.7588L70.469 35.0057H70.5713L73.2815 27.1818H74.9179ZM80.6739 37.2045C79.7279 37.2045 78.9118 36.9957 78.2258 36.5781C77.5439 36.1562 77.0177 35.5682 76.6469 34.8139C76.2805 34.0554 76.0972 33.1733 76.0972 32.1676C76.0972 31.1619 76.2805 30.2756 76.6469 29.5085C77.0177 28.7372 77.5333 28.1364 78.1938 27.706C78.8586 27.2713 79.6341 27.054 80.5205 27.054C81.0319 27.054 81.5368 27.1392 82.0354 27.3097C82.534 27.4801 82.9878 27.7571 83.3969 28.1406C83.806 28.5199 84.132 29.0227 84.3749 29.6491C84.6178 30.2756 84.7393 31.0469 84.7393 31.9631V32.6023H77.1711V31.2983H83.2052C83.2052 30.7443 83.0944 30.25 82.8728 29.8153C82.6555 29.3807 82.3444 29.0376 81.9395 28.7862C81.539 28.5348 81.066 28.4091 80.5205 28.4091C79.9197 28.4091 79.3998 28.5582 78.9608 28.8565C78.5262 29.1506 78.1917 29.5341 77.9573 30.0071C77.7229 30.4801 77.6057 30.9872 77.6057 31.5284V32.3977C77.6057 33.1392 77.7336 33.7678 77.9893 34.2834C78.2492 34.7947 78.6093 35.1847 79.0695 35.4531C79.5297 35.7173 80.0645 35.8494 80.6739 35.8494C81.0702 35.8494 81.4282 35.794 81.7478 35.6832C82.0716 35.5682 82.3508 35.3977 82.5851 35.1719C82.8195 34.9418 83.0006 34.6562 83.1285 34.3153L84.5858 34.7244C84.4324 35.2188 84.1746 35.6534 83.8124 36.0284C83.4502 36.3991 83.0028 36.6889 82.4701 36.8977C81.9374 37.1023 81.3387 37.2045 80.6739 37.2045ZM87.034 37V27.1818H88.4914V28.6648H88.5937C88.7726 28.179 89.0965 27.7848 89.5653 27.4822C90.034 27.1797 90.5624 27.0284 91.1505 27.0284C91.2613 27.0284 91.3998 27.0305 91.566 27.0348C91.7322 27.0391 91.8579 27.0455 91.9431 27.054V28.5881C91.892 28.5753 91.7748 28.5561 91.5915 28.5305C91.4126 28.5007 91.2229 28.4858 91.0226 28.4858C90.5454 28.4858 90.1192 28.5859 89.7442 28.7862C89.3735 28.9822 89.0795 29.255 88.8621 29.6044C88.6491 29.9496 88.5425 30.3437 88.5425 30.7869V37H87.034ZM98.6164 27.1818V28.4602H93.5283V27.1818H98.6164ZM95.0113 24.8295H96.5198V34.1875C96.5198 34.6136 96.5816 34.9332 96.7052 35.1463C96.833 35.3551 96.9949 35.4957 97.191 35.5682C97.3912 35.6364 97.6022 35.6705 97.8238 35.6705C97.99 35.6705 98.1263 35.6619 98.2329 35.6449C98.3394 35.6236 98.4246 35.6065 98.4885 35.5938L98.7954 36.9489C98.6931 36.9872 98.5503 37.0256 98.3671 37.0639C98.1839 37.1065 97.9516 37.1278 97.6704 37.1278C97.2442 37.1278 96.8266 37.0362 96.4175 36.853C96.0127 36.6697 95.676 36.3906 95.4076 36.0156C95.1434 35.6406 95.0113 35.1676 95.0113 34.5966V24.8295Z" fill="#2B3144"/>
<g id="Frame 1294">
<path d="M131 5C131 2.23858 133.239 0 136 0H197V60H136C133.239 60 131 57.7614 131 55V5Z" fill="#5367FF"/>
<g id="Component 5">
<path id="Mask" fill-rule="evenodd" clip-rule="evenodd" d="M157.594 23.0003H170.221C172.304 23.0003 174 24.5833 174 26.5293V29.0002C174 29.5532 173.529 30.0002 172.947 30.0002C172.365 30.0002 171.895 29.5532 171.895 29.0002V26.5293C171.895 25.6873 171.144 25.0002 170.221 25.0002H157.594L158.955 26.2933C159.365 26.6842 159.365 27.3163 158.955 27.7073C158.75 27.9023 158.48 28.0002 158.211 28.0002C157.941 28.0002 157.672 27.9023 157.467 27.7073L154.309 24.7073C153.897 24.3163 153.897 23.6843 154.309 23.2933L157.467 20.2932C157.877 19.9022 158.543 19.9022 158.955 20.2932C159.365 20.6842 159.365 21.3162 158.955 21.7072L157.594 23.0003ZM169.045 32.2935C169.457 31.9025 170.122 31.9025 170.533 32.2935L173.691 35.2935C174.103 35.6845 174.103 36.3165 173.691 36.7075L170.533 39.7075C170.328 39.9025 170.059 40.0005 169.789 40.0005C169.52 40.0005 169.25 39.9025 169.045 39.7075C168.633 39.3165 168.633 38.6845 169.045 38.2935L170.406 37.0005H157.779C155.695 37.0005 154 35.4175 154 33.4715V31.0005C154 30.4475 154.472 30.0005 155.053 30.0005C155.634 30.0005 156.105 30.4475 156.105 31.0005V33.4715C156.105 34.3145 156.856 35.0005 157.779 35.0005H170.406L169.045 33.7075C168.633 33.3165 168.633 32.6845 169.045 32.2935Z" fill="white"/>
</g>
</g>
</g>
</g>
</svg>
