<svg width="25" height="25" viewBox="0 0 25 25" fill="none" xmlns="http://www.w3.org/2000/svg">
<g id="Icon">
<path id="icon" fill-rule="evenodd" clip-rule="evenodd" d="M15.9506 1.46223C17.0126 1.15878 18.1196 1.77377 18.423 2.83584C18.4741 3.01452 18.5 3.19945 18.5 3.38528V5.05955H20.5C21.6046 5.05955 22.5 5.95498 22.5 7.05955V19.0596C22.5 20.1641 21.6046 21.0596 20.5 21.0596H4.5C3.39543 21.0596 2.5 20.1641 2.5 19.0596H2.5267C2.50895 18.952 2.5 18.8431 2.5 18.7338V6.81385C2.5 5.92089 3.09195 5.13612 3.95056 4.8908L15.9506 1.46223ZM10.6401 19.0596H20.5V11.0596H18.5V15.3052C18.5 16.1982 17.908 16.983 17.0494 17.2283L10.6401 19.0596ZM18.5 7.05955H20.5V9.05955H18.5V7.05955ZM4.5 6.81383V18.7338L16.5 15.3052V3.38525L4.5 6.81383ZM14.5 9.05955C14.5 9.61184 14.0523 10.0596 13.5 10.0596C12.9477 10.0596 12.5 9.61184 12.5 9.05955C12.5 8.50727 12.9477 8.05955 13.5 8.05955C14.0523 8.05955 14.5 8.50727 14.5 9.05955Z" fill="#9295A6"/>
</g>
</svg>
