<svg width="24" height="25" viewBox="0 0 24 25" fill="none" xmlns="http://www.w3.org/2000/svg">
<g id="Icon">
<path id="icon" fill-rule="evenodd" clip-rule="evenodd" d="M15.4506 1.46223C16.5126 1.15878 17.6196 1.77377 17.923 2.83584C17.9741 3.01452 18 3.19945 18 3.38528V5.05955H20C21.1046 5.05955 22 5.95498 22 7.05955V19.0596C22 20.1641 21.1046 21.0596 20 21.0596H4C2.89543 21.0596 2 20.1641 2 19.0596H2.0267C2.00895 18.952 2 18.8431 2 18.7338V6.81385C2 5.92089 2.59195 5.13612 3.45056 4.8908L15.4506 1.46223ZM10.1401 19.0596H20V11.0596H18V15.3052C18 16.1982 17.408 16.983 16.5494 17.2283L10.1401 19.0596ZM18 7.05955H20V9.05955H18V7.05955ZM4 6.81383V18.7338L16 15.3052V3.38525L4 6.81383ZM14 9.05955C14 9.61184 13.5523 10.0596 13 10.0596C12.4477 10.0596 12 9.61184 12 9.05955C12 8.50727 12.4477 8.05955 13 8.05955C13.5523 8.05955 14 8.50727 14 9.05955Z" fill="#9295A6"/>
</g>
</svg>
