<svg width="25" height="24" viewBox="0 0 25 24" fill="none" xmlns="http://www.w3.org/2000/svg">
<g id="Icon">
<path id="Mask" fill-rule="evenodd" clip-rule="evenodd" d="M21.3925 6.963C21.3905 6.891 21.3695 6.823 21.3505 6.754C21.3355 6.696 21.3285 6.637 21.3035 6.584C21.2805 6.532 21.2415 6.49 21.2075 6.442C21.1655 6.381 21.1275 6.32 21.0735 6.27C21.0645 6.261 21.0605 6.249 21.0505 6.241C21.0145 6.21 20.9705 6.199 20.9315 6.174C20.8715 6.135 20.8125 6.095 20.7445 6.069C20.6775 6.045 20.6115 6.039 20.5425 6.029C20.4945 6.022 20.4515 6 20.4005 6H15.4005C14.8475 6 14.4005 6.448 14.4005 7C14.4005 7.552 14.8475 8 15.4005 8H18.2265L14.1905 12.708L9.91452 10.143C9.49152 9.887 8.94752 9.981 8.63152 10.36L3.63152 16.36C3.27852 16.784 3.33552 17.415 3.75952 17.768C3.94752 17.924 4.17352 18 4.39952 18C4.68652 18 4.97052 17.878 5.16852 17.64L9.62052 12.298L13.8855 14.858C14.3045 15.109 14.8425 15.021 15.1595 14.651L19.4005 9.703V12C19.4005 12.552 19.8475 13 20.4005 13C20.9535 13 21.4005 12.552 21.4005 12V7C21.4005 6.987 21.3935 6.976 21.3925 6.963Z" fill="#03A66D"/>
</g>
</svg>
