<svg width="24" height="25" viewBox="0 0 24 25" fill="none" xmlns="http://www.w3.org/2000/svg">
<g id="Icon">
<path id="icon" fill-rule="evenodd" clip-rule="evenodd" d="M15.4506 1.96028C16.5126 1.65683 17.6196 2.27182 17.923 3.33389C17.9741 3.51257 18 3.69749 18 3.88333V5.5576H20C21.1046 5.5576 22 6.45303 22 7.5576V19.5576C22 20.6622 21.1046 21.5576 20 21.5576H4C2.89543 21.5576 2 20.6622 2 19.5576H2.0267C2.00895 19.4501 2 19.3411 2 19.2319V7.3119C2 6.41894 2.59195 5.63417 3.45056 5.38885L15.4506 1.96028ZM10.1401 19.5576H20V11.5576H18V15.8033C18 16.6963 17.408 17.481 16.5494 17.7263L10.1401 19.5576ZM18 7.5576H20V9.5576H18V7.5576ZM4 7.31187V19.2318L16 15.8033V3.8833L4 7.31187ZM14 9.5576C14 10.1099 13.5523 10.5576 13 10.5576C12.4477 10.5576 12 10.1099 12 9.5576C12 9.00531 12.4477 8.5576 13 8.5576C13.5523 8.5576 14 9.00531 14 9.5576Z" fill="#9295A6"/>
</g>
</svg>
