<svg width="25" height="24" viewBox="0 0 25 24" fill="none" xmlns="http://www.w3.org/2000/svg">
<g id="Icon">
<path id="Mask" d="M15.4438 8.26308C15.7472 7.89964 15.6975 7.35964 15.3341 7.0562C14.9706 6.75277 14.4298 6.80249 14.1272 7.16592L9.84144 11.4517C9.80715 11.492 9.79087 11.54 9.76515 11.5845C9.74458 11.6197 9.72058 11.6505 9.70515 11.6891C9.66572 11.7894 9.64258 11.894 9.64258 12.0003C9.64258 12.1066 9.66572 12.2111 9.70515 12.3114C9.72058 12.35 9.74458 12.3808 9.76515 12.416C9.79087 12.4606 9.80715 12.5086 9.84144 12.5488L14.1272 16.8346C14.4298 17.1989 14.9706 17.2478 15.3341 16.9443C15.6975 16.6418 15.7472 16.1018 15.4438 15.7375L12.3298 12.8574L11.4727 12.0003L12.3318 11.1412L15.4438 8.26308Z" fill="#9295A6"/>
</g>
</svg>
