<svg width="25" height="24" viewBox="0 0 25 24" fill="none" xmlns="http://www.w3.org/2000/svg">
<g id="Icon">
<path id="Mask" fill-rule="evenodd" clip-rule="evenodd" d="M21.3924 6.963C21.3904 6.891 21.3694 6.823 21.3504 6.754C21.3354 6.696 21.3284 6.637 21.3034 6.584C21.2804 6.532 21.2414 6.49 21.2074 6.442C21.1654 6.381 21.1274 6.32 21.0734 6.27C21.0644 6.261 21.0604 6.249 21.0504 6.241C21.0144 6.21 20.9704 6.199 20.9314 6.174C20.8714 6.135 20.8124 6.095 20.7444 6.069C20.6774 6.045 20.6114 6.039 20.5424 6.029C20.4944 6.022 20.4514 6 20.4004 6H15.4004C14.8474 6 14.4004 6.448 14.4004 7C14.4004 7.552 14.8474 8 15.4004 8H18.2264L14.1904 12.708L9.9144 10.143C9.4914 9.887 8.9474 9.981 8.6314 10.36L3.6314 16.36C3.2784 16.784 3.3354 17.415 3.7594 17.768C3.9474 17.924 4.1734 18 4.3994 18C4.6864 18 4.9704 17.878 5.1684 17.64L9.6204 12.298L13.8854 14.858C14.3044 15.109 14.8424 15.021 15.1594 14.651L19.4004 9.703V12C19.4004 12.552 19.8474 13 20.4004 13C20.9534 13 21.4004 12.552 21.4004 12V7C21.4004 6.987 21.3934 6.976 21.3924 6.963Z" fill="#03A66D"/>
</g>
</svg>
