<svg width="24" height="24" viewBox="0 0 24 24" fill="none" xmlns="http://www.w3.org/2000/svg">
<g id="Icon">
<path id="Mask" fill-rule="evenodd" clip-rule="evenodd" d="M17.7363 20.9501C17.5867 20.9501 17.4361 20.915 17.2979 20.8431L12.4692 18.3203L7.64151 20.8431C7.32143 21.0088 6.93506 20.9804 6.64528 20.7682C6.35361 20.5561 6.20873 20.1972 6.27028 19.8421L7.1898 14.5125L3.28824 10.7388C3.02877 10.4878 2.93502 10.1109 3.04581 9.76623C3.15661 9.42342 3.45302 9.17248 3.81097 9.12134L9.20876 8.33724L11.6217 3.48302C11.9417 2.83907 12.9976 2.83907 13.3177 3.48302L15.7306 8.33724L21.1284 9.12134C21.4864 9.17248 21.7828 9.42342 21.8936 9.76623C22.0043 10.1109 21.9106 10.4878 21.6511 10.7388L17.7496 14.5125L18.6691 19.8421C18.7306 20.1972 18.5848 20.5561 18.2941 20.7682C18.1293 20.8895 17.9333 20.9501 17.7363 20.9501Z" fill="#5367FF"/>
</g>
</svg>
