<svg width="25" height="24" viewBox="0 0 25 24" fill="none" xmlns="http://www.w3.org/2000/svg">
<g id="Icon">
<path id="Mask" d="M8.90565 14.8012C8.54222 15.1047 8.00221 15.0549 7.69878 14.6915C7.39535 14.3281 7.44506 13.7872 7.8085 13.4846L12.0943 9.19886C12.1346 9.16457 12.1826 9.14829 12.2271 9.12257C12.2623 9.102 12.2931 9.078 12.3317 9.06257C12.432 9.02314 12.5366 9 12.6428 9C12.7491 9 12.8537 9.02314 12.954 9.06257C12.9926 9.078 13.0234 9.102 13.0586 9.12257C13.1031 9.14829 13.1511 9.16457 13.1914 9.19886L17.4772 13.4846C17.8415 13.7872 17.8903 14.3281 17.5869 14.6915C17.2843 15.0549 16.7443 15.1047 16.38 14.8012L13.5 11.6872L12.6429 10.8301L11.7838 11.6893L8.90565 14.8012Z" fill="#5367FF"/>
</g>
</svg>
