<svg width="25" height="24" viewBox="0 0 25 24" fill="none" xmlns="http://www.w3.org/2000/svg">
<g id="Icon">
<path id="Mask" d="M9.84136 15.7369C9.53793 16.1004 9.58764 16.6404 9.95108 16.9438C10.3145 17.2472 10.8554 17.1975 11.1579 16.8341L15.4437 12.5483C15.478 12.508 15.4943 12.46 15.52 12.4155C15.5406 12.3803 15.5646 12.3495 15.58 12.3109C15.6194 12.2106 15.6426 12.106 15.6426 11.9997C15.6426 11.8934 15.6194 11.7889 15.58 11.6886C15.5646 11.65 15.5406 11.6192 15.52 11.584C15.4943 11.5394 15.478 11.4914 15.4437 11.4512L11.1579 7.16538C10.8554 6.80109 10.3145 6.75224 9.95108 7.05567C9.58764 7.35824 9.53793 7.89825 9.84136 8.26254L12.9554 11.1426L13.8125 11.9997L12.9533 12.8588L9.84136 15.7369Z" fill="#9295A6"/>
</g>
</svg>
