<svg width="25" height="24" viewBox="0 0 25 24" fill="none" xmlns="http://www.w3.org/2000/svg">
<g id="Icon">
<path id="Mask" d="M8.90565 9.19878C8.54222 8.89535 8.00221 8.94506 7.69878 9.3085C7.39535 9.67193 7.44506 10.2128 7.8085 10.5154L12.0943 14.8011C12.1346 14.8354 12.1826 14.8517 12.2271 14.8774C12.2623 14.898 12.2931 14.922 12.3317 14.9374C12.432 14.9769 12.5366 15 12.6428 15C12.7491 15 12.8537 14.9769 12.954 14.9374C12.9926 14.922 13.0234 14.898 13.0586 14.8774C13.1031 14.8517 13.1511 14.8354 13.1914 14.8011L17.4772 10.5154C17.8415 10.2128 17.8903 9.67193 17.5869 9.3085C17.2843 8.94506 16.7443 8.89535 16.38 9.19878L13.5 12.3128L12.6429 13.1699L11.7838 12.3107L8.90565 9.19878Z" fill="#9295A6"/>
</g>
</svg>
