<svg width="24" height="24" viewBox="0 0 24 24" fill="none" xmlns="http://www.w3.org/2000/svg">
<g id="Property 1=Fees, Property 2=Off">
<path id="Mask" fill-rule="evenodd" clip-rule="evenodd" d="M10.5605 8.43999C11.1465 9.02499 11.1465 9.97599 10.5605 10.561C9.9745 11.147 9.0255 11.147 8.4395 10.561C7.8535 9.97599 7.8535 9.02499 8.4395 8.43999C9.0255 7.85399 9.9745 7.85399 10.5605 8.43999ZM5.83442 12.892L11.8664 18.925L18.9244 11.867L12.8924 5.83397L5.10742 5.10797L5.83442 12.892ZM11.8662 20.999C11.4012 20.999 10.9372 20.822 10.5822 20.469L4.16517 14.051C4.00017 13.887 3.89817 13.669 3.87617 13.437L3.00417 4.09297C2.97717 3.79697 3.08217 3.50397 3.29317 3.29297C3.50417 3.08197 3.79617 2.97497 4.09317 3.00497L13.4372 3.87697C13.6692 3.89797 13.8862 3.99997 14.0512 4.16497L20.4682 10.582C20.8112 10.925 21.0002 11.381 21.0002 11.867C21.0002 12.353 20.8112 12.809 20.4682 13.152L13.1512 20.468C12.7972 20.822 12.3322 20.999 11.8662 20.999Z" fill="#9295A6"/>
</g>
</svg>
