<svg width="24" height="24" viewBox="0 0 24 24" fill="none" xmlns="http://www.w3.org/2000/svg">
<g id="Property 1=Menu, Property 2=Default">
<path id="Mask" fill-rule="evenodd" clip-rule="evenodd" d="M3 7C3 6.448 3.448 6 4 6C4.552 6 5 6.448 5 7C5 7.552 4.552 8 4 8C3.448 8 3 7.552 3 7ZM3 12C3 11.448 3.448 11 4 11C4.552 11 5 11.448 5 12C5 12.552 4.552 13 4 13C3.448 13 3 12.552 3 12ZM4 16C3.448 16 3 16.448 3 17C3 17.552 3.448 18 4 18C4.552 18 5 17.552 5 17C5 16.448 4.552 16 4 16ZM7.935 11H20.064C20.579 11 21 11.421 21 11.936V12.064C21 12.579 20.579 13 20.064 13H7.935C7.42 13 7 12.579 7 12.064V11.936C7 11.421 7.42 11 7.935 11ZM20.064 16H7.935C7.42 16 7 16.421 7 16.936V17.064C7 17.579 7.42 18 7.935 18H20.064C20.579 18 21 17.579 21 17.064V16.936C21 16.421 20.579 16 20.064 16ZM7.935 6H20.064C20.579 6 21 6.421 21 6.936V7.064C21 7.579 20.579 8 20.064 8H7.935C7.42 8 7 7.579 7 7.064V6.936C7 6.421 7.42 6 7.935 6Z" fill="#9295A6"/>
</g>
</svg>
