<svg width="24" height="24" viewBox="0 0 24 24" fill="none" xmlns="http://www.w3.org/2000/svg">
<g id="Property 1=Notification, Property 2=On">
<path id="Mask" fill-rule="evenodd" clip-rule="evenodd" d="M5.51562 15.9996L6.69563 14.8176C7.07363 14.4396 7.28163 13.9376 7.28163 13.4036V8.72659C7.28163 7.36959 7.87162 6.07259 8.90163 5.17059C9.93962 4.26059 11.2616 3.86059 12.6386 4.04159C14.9656 4.35059 16.7206 6.45459 16.7206 8.93659V13.4036C16.7206 13.9376 16.9286 14.4396 17.3056 14.8166L18.4866 15.9996H5.51562ZM14 18.341C14 19.24 13.084 20 12 20C10.916 20 10 19.24 10 18.341V18H14V18.341ZM20.5213 15.2078L18.7203 13.4038V8.93683C18.7203 5.45583 16.2183 2.49883 12.9003 2.05983C10.9783 1.80383 9.03834 2.39083 7.58334 3.66683C6.11934 4.94883 5.28134 6.79283 5.28134 8.72683L5.28034 13.4038L3.47934 15.2078C3.01034 15.6778 2.87134 16.3768 3.12534 16.9898C3.38034 17.6038 3.97334 17.9998 4.63734 17.9998H8.00034V18.3408C8.00034 20.3588 9.79434 21.9998 12.0003 21.9998C14.2063 21.9998 16.0003 20.3588 16.0003 18.3408V17.9998H19.3633C20.0273 17.9998 20.6193 17.6038 20.8733 16.9908C21.1283 16.3768 20.9903 15.6768 20.5213 15.2078Z" fill="#5367FF"/>
</g>
</svg>
