<svg width="24" height="24" viewBox="0 0 24 24" fill="none" xmlns="http://www.w3.org/2000/svg">
<g id="Property 1=Return, Property 2=On">
<path id="icon" fill-rule="evenodd" clip-rule="evenodd" d="M3.54374 4H19.1356C19.9882 4 20.6793 4.75369 20.6793 5.68342V8.48926H21.6129V10.2849H20.6793V11.5752H18.9823V10.2849H3.69922V15.7841H11.3398V17.4671H16.0092L14.1414 15.6717L17.6037 12.3434L18.9246 13.6131L17.717 14.7739H22V16.5695H17.717L18.6508 17.4671H19.158L19.1356 17.4673H18.651L18.9246 17.7303L17.6037 19L16.0094 17.4673H3.54374C2.69116 17.4673 2 16.7136 2 15.7839V5.68342C2 4.75369 2.69116 4 3.54374 4ZM18.9823 5.68359V8.48926H3.69922V5.68359H18.9823Z" fill="#5367FF"/>
</g>
</svg>
