<svg width="24" height="24" viewBox="0 0 24 24" fill="none" xmlns="http://www.w3.org/2000/svg">
<g id="Property 1=Components, Property 2=On">
<path id="Mask" fill-rule="evenodd" clip-rule="evenodd" d="M17.7603 15.5402L12.0003 18.8472L6.24033 15.5402L7.93433 14.8193L11.5023 16.8672C11.6563 16.9563 11.8283 17.0002 12.0003 17.0002C12.1723 17.0002 12.3433 16.9563 12.4983 16.8672L16.0663 14.8182L17.7603 15.5402ZM11.5023 12.8672C11.6563 12.9562 11.8283 13.0002 12.0003 13.0002C12.1723 13.0002 12.3433 12.9562 12.4983 12.8672L16.0663 10.8182L17.7603 11.5402L12.0003 14.8472L6.24033 11.5402L7.93433 10.8182L11.5023 12.8672ZM12.0003 5.08725L17.7603 7.54025L12.0003 10.8472L6.24033 7.54025L12.0003 5.08725ZM20.9983 11.3483C20.9753 10.9693 20.7403 10.6363 20.3913 10.4872L18.2393 9.57125L20.4983 8.27425C20.8273 8.08625 21.0203 7.72725 20.9983 7.34825C20.9753 6.97025 20.7403 6.63625 20.3913 6.48725L12.3913 3.08025C12.1413 2.97325 11.8583 2.97325 11.6083 3.08025L3.60833 6.48725C3.25933 6.63625 3.02433 6.97025 3.00233 7.34825C2.97933 7.72725 3.17333 8.08625 3.50233 8.27425L5.76033 9.57125L3.60833 10.4872C3.25933 10.6363 3.02433 10.9693 3.00233 11.3483C2.97933 11.7273 3.17333 12.0863 3.50233 12.2743L5.76033 13.5712L3.60833 14.4873C3.25933 14.6363 3.02433 14.9693 3.00233 15.3483C2.97933 15.7273 3.17333 16.0863 3.50233 16.2743L11.5023 20.8673C11.6563 20.9563 11.8283 21.0002 12.0003 21.0002C12.1723 21.0002 12.3433 20.9563 12.4983 20.8673L20.4983 16.2743C20.8273 16.0863 21.0203 15.7273 20.9983 15.3483C20.9753 14.9703 20.7403 14.6363 20.3923 14.4873L18.2403 13.5702L20.4983 12.2743C20.8273 12.0863 21.0203 11.7273 20.9983 11.3483Z" fill="#5367FF"/>
</g>
</svg>
