<svg width="24" height="24" viewBox="0 0 24 24" fill="none" xmlns="http://www.w3.org/2000/svg">
<g id="Property 1=Return, Property 2=Off">
<path id="Mask" fill-rule="evenodd" clip-rule="evenodd" d="M21.6831 10.326C21.6758 10.3419 21.6685 10.3578 21.6618 10.374C21.6549 10.3908 21.6495 10.4082 21.6441 10.4257C21.6354 10.454 21.6266 10.4822 21.6118 10.507C21.5822 10.556 21.5435 10.5972 21.5048 10.6385C21.4937 10.6502 21.4826 10.662 21.4718 10.674C21.4597 10.6865 21.449 10.7003 21.4383 10.714C21.4233 10.7331 21.4084 10.7523 21.3898 10.768C21.3338 10.8137 21.269 10.8455 21.2045 10.8772C21.2 10.8795 21.1954 10.8817 21.1908 10.884C21.1771 10.8906 21.1642 10.8989 21.1512 10.9073C21.1328 10.9191 21.1143 10.931 21.0938 10.938C20.9858 10.978 20.8708 11 20.7518 11C20.6978 11 20.6418 10.996 20.5868 10.986L16.3368 10.281C15.7918 10.191 15.4238 9.676 15.5138 9.131C15.6038 8.587 16.1178 8.214 16.6638 8.309L18.3078 8.581C17.0628 6.395 14.6858 5 12.0698 5C9.11076 5 6.50376 6.718 5.42676 9.375C5.26976 9.765 4.89476 10 4.49976 10C4.37476 10 4.24776 9.977 4.12476 9.927C3.61276 9.72 3.36576 9.137 3.57376 8.625C4.95776 5.208 8.29276 3 12.0698 3C15.4818 3 18.5828 4.87 20.1478 7.788L20.5168 5.815C20.6188 5.273 21.1428 4.914 21.6838 5.018C22.2268 5.119 22.5848 5.642 22.4828 6.185L21.7338 10.185C21.7242 10.236 21.7036 10.281 21.6831 10.326ZM18.5734 14.6252C18.7804 14.1122 19.3644 13.8662 19.8754 14.0732C20.3874 14.2802 20.6344 14.8632 20.4264 15.3752C19.0424 18.7922 15.7074 21.0002 11.9304 21.0002C8.51839 21.0002 5.41739 19.1302 3.85239 16.2122L3.48239 18.1842C3.39339 18.6652 2.97339 19.0002 2.50039 19.0002C2.43939 19.0002 2.37739 18.9942 2.31539 18.9822C1.77239 18.8812 1.41539 18.3582 1.51739 17.8152L2.26639 13.8152C2.274 13.7759 2.29083 13.7411 2.30774 13.706C2.31752 13.6858 2.32733 13.6655 2.33539 13.6442C2.3433 13.6243 2.35021 13.6037 2.35712 13.583C2.37208 13.5383 2.3871 13.4935 2.41239 13.4552C2.42715 13.4324 2.44645 13.4142 2.46586 13.3959C2.47802 13.3844 2.49023 13.3729 2.50139 13.3602C2.5102 13.35 2.51891 13.3397 2.52761 13.3295C2.5752 13.2734 2.62236 13.2178 2.68239 13.1772C2.68829 13.1729 2.69533 13.1703 2.7023 13.1678C2.70832 13.1656 2.71429 13.1634 2.71939 13.1602C2.81639 13.0972 2.92039 13.0482 3.03539 13.0232C3.0424 13.0216 3.04969 13.022 3.05696 13.0224C3.06319 13.0228 3.0694 13.0231 3.07539 13.0222C3.18539 13.0042 3.29639 12.9932 3.41339 13.0132L7.66339 13.7192C8.20839 13.8082 8.57639 14.3242 8.48639 14.8692C8.40539 15.3582 7.98139 15.7052 7.50039 15.7052C7.44639 15.7052 7.39139 15.7012 7.33639 15.6912L5.69239 15.4192C6.93739 17.6052 9.31439 19.0002 11.9304 19.0002C14.8894 19.0002 17.4964 17.2822 18.5734 14.6252Z" fill="#9295A6"/>
</g>
</svg>
