<svg width="24" height="24" viewBox="0 0 24 24" fill="none" xmlns="http://www.w3.org/2000/svg">
<g id="Property 1=Deposited, Property 2=Off">
<path id="Mask" fill-rule="evenodd" clip-rule="evenodd" d="M11.0028 12.0756C11.0009 12.0506 11 12.0254 11 12V4C11 3.448 11.447 3 12 3C12.553 3 13 3.448 13 4V11.9998L15.4002 10.1998C15.8422 9.86683 16.4692 9.95783 16.8002 10.3998C17.1322 10.8418 17.0422 11.4688 16.6002 11.7998L12.6002 14.7998C12.4232 14.9328 12.2112 14.9998 12.0002 14.9998C11.7992 14.9998 11.5982 14.9388 11.4252 14.8178L7.42521 12.0038C6.97321 11.6858 6.86421 11.0618 7.18221 10.6108C7.50021 10.1588 8.12321 10.0498 8.57521 10.3678L11.0028 12.0756ZM6 17V18H18V17C18 16.45 18.45 16 19 16C19.55 16 20 16.45 20 17V19C20 19.55 19.55 20 19 20H5C4.45 20 4 19.55 4 19V17C4 16.45 4.45 16 5 16C5.55 16 6 16.45 6 17Z" fill="#9295A6"/>
</g>
</svg>
