<svg width="24" height="24" viewBox="0 0 24 24" fill="none" xmlns="http://www.w3.org/2000/svg">
<g id="Property 1=Hide Icon, Property 2=Off">
<path id="Mask" fill-rule="evenodd" clip-rule="evenodd" d="M12 13.5003C11.173 13.5003 10.5 12.8273 10.5 12.0003C10.5 11.9872 10.503 11.9744 10.506 11.9616L10.506 11.9615C10.5088 11.9499 10.5115 11.9382 10.512 11.9263L12.074 13.4883C12.0621 13.4887 12.0504 13.4915 12.0387 13.4942C12.0259 13.4972 12.0131 13.5003 12 13.5003ZM4.70725 3.29325C4.31625 2.90225 3.68425 2.90225 3.29325 3.29325C2.90225 3.68425 2.90225 4.31625 3.29325 4.70725L8.92325 10.3373C8.64725 10.8463 8.50025 11.4113 8.50025 12.0002C8.50025 13.9303 10.0702 15.5002 12.0002 15.5002C12.5892 15.5002 13.1543 15.3532 13.6632 15.0772L19.2932 20.7073C19.4882 20.9023 19.7442 21.0002 20.0002 21.0002C20.2563 21.0002 20.5123 20.9023 20.7073 20.7073C21.0983 20.3162 21.0983 19.6842 20.7073 19.2932L4.70725 3.29325ZM12.2198 16.998C7.91475 17.098 5.10475 13.415 4.17275 11.996C4.62975 11.282 5.39575 10.236 6.45575 9.28505L5.04475 7.87305C3.52275 9.26205 2.54675 10.78 2.13275 11.503C1.95575 11.811 1.95575 12.19 2.13275 12.498C2.76175 13.595 6.16175 19 12.0247 19C12.1067 19 12.1888 18.999 12.2708 18.997C13.4548 18.967 14.5268 18.711 15.4978 18.327L13.9178 16.747C13.3828 16.889 12.8198 16.983 12.2198 16.998ZM11.73 5.00365C17.705 4.81665 21.23 10.3907 21.868 11.5027C22.044 11.8107 22.044 12.1897 21.868 12.4977C21.453 13.2207 20.477 14.7387 18.955 16.1277L17.544 14.7157C18.604 13.7647 19.371 12.7187 19.827 12.0047C18.895 10.5857 16.072 6.89465 11.781 7.00265C11.181 7.01765 10.618 7.11165 10.082 7.25365L8.50195 5.67365C9.47395 5.28965 10.545 5.03365 11.73 5.00365Z" fill="#9295A6"/>
</g>
</svg>
