<svg width="24" height="24" viewBox="0 0 24 24" fill="none" xmlns="http://www.w3.org/2000/svg">
<g id="Property 1=Link, Property 2=On">
<path id="Mask" fill-rule="evenodd" clip-rule="evenodd" d="M19.1105 4.04444C19.5994 4.04711 19.994 4.44442 19.994 4.93239L20.0002 9.33213C20.0002 9.82276 19.6029 10.2219 19.1123 10.2219H19.1114C18.6208 10.2219 18.2226 9.82454 18.2226 9.33391L18.2181 7.03893L10.8514 14.4056C10.6781 14.5798 10.4506 14.666 10.223 14.666C9.9955 14.666 9.76796 14.5798 9.59464 14.4056C9.2471 14.059 9.2471 13.4963 9.59464 13.1488L16.9355 5.80878L14.6619 5.77767C14.1704 5.77501 13.7748 5.37414 13.7784 4.8835C13.7815 4.45162 14.0913 4.09326 14.5005 4.0156L19.1105 4.04444ZM14.5005 4.0156C14.5545 4.00536 14.6103 4 14.6672 4H12.006L14.5005 4.0156ZM18.2214 13.7404C18.2214 13.2497 18.6196 12.8515 19.1102 12.8515C19.6009 12.8515 19.999 13.2497 19.999 13.7404V17.6876C19.999 18.9622 18.9618 19.9995 17.6881 19.9995H6.31097C5.03727 19.9995 4 18.9622 4 17.6876V6.31142C4 5.03683 5.03727 4.00045 6.31097 4.00045H10.2591C10.7498 4.00045 11.148 4.39776 11.148 4.88928C11.148 5.37992 10.7498 5.77812 10.2591 5.77812H6.31097C6.01677 5.77812 5.77767 6.01722 5.77767 6.31142V17.6876C5.77767 17.9818 6.01677 18.2218 6.31097 18.2218H17.6881C17.9823 18.2218 18.2214 17.9818 18.2214 17.6876V13.7404Z" fill="#5367FF"/>
</g>
</svg>
