<svg width="24" height="24" viewBox="0 0 24 24" fill="none" xmlns="http://www.w3.org/2000/svg">
<g id="Property 1=Convert Icon, Property 2=Off">
<path id="Mask" fill-rule="evenodd" clip-rule="evenodd" d="M5.91425 5.00025H17.9102C19.8892 5.00025 21.5002 6.58325 21.5002 8.52925V11.0002C21.5002 11.5532 21.0532 12.0002 20.5002 12.0002C19.9473 12.0002 19.5002 11.5532 19.5002 11.0002V8.52925C19.5002 7.68725 18.7873 7.00025 17.9102 7.00025H5.91425L7.20725 8.29325C7.59725 8.68425 7.59725 9.31625 7.20725 9.70725C7.01225 9.90225 6.75625 10.0002 6.50025 10.0002C6.24425 10.0002 5.98825 9.90225 5.79325 9.70725L2.79325 6.70725C2.40225 6.31625 2.40225 5.68425 2.79325 5.29325L5.79325 2.29325C6.18325 1.90225 6.81625 1.90225 7.20725 2.29325C7.59725 2.68425 7.59725 3.31625 7.20725 3.70725L5.91425 5.00025ZM16.793 14.2935C17.184 13.9025 17.816 13.9025 18.207 14.2935L21.207 17.2935C21.598 17.6845 21.598 18.3165 21.207 18.7075L18.207 21.7075C18.012 21.9025 17.756 22.0005 17.5 22.0005C17.244 22.0005 16.988 21.9025 16.793 21.7075C16.402 21.3165 16.402 20.6845 16.793 20.2935L18.086 19.0005H6.09C4.11 19.0005 2.5 17.4175 2.5 15.4715V13.0005C2.5 12.4475 2.948 12.0005 3.5 12.0005C4.052 12.0005 4.5 12.4475 4.5 13.0005V15.4715C4.5 16.3145 5.213 17.0005 6.09 17.0005H18.086L16.793 15.7075C16.402 15.3165 16.402 14.6845 16.793 14.2935Z" fill="#9295A6"/>
</g>
</svg>
