<svg width="24" height="24" viewBox="0 0 24 24" fill="none" xmlns="http://www.w3.org/2000/svg">
<g id="Property 1=Dashbord, Property 2=Off">
<path id="Mask" fill-rule="evenodd" clip-rule="evenodd" d="M18.99 20.0006H16V13.0006C16 12.4476 15.552 12.0006 15 12.0006H9C8.447 12.0006 8 12.4476 8 13.0006V20.0006H5L5.006 11.5836L11.998 4.43262L19 11.6246L18.99 20.0006ZM10 20.0004H14V14.0004H10V20.0004ZM20.424 10.1854L12.715 2.30145C12.338 1.91645 11.662 1.91645 11.285 2.30145L3.575 10.1864C3.21 10.5614 3 11.0854 3 11.6244V20.0004C3 21.1034 3.847 22.0004 4.888 22.0004H9H15H19.111C20.152 22.0004 21 21.1034 21 20.0004V11.6244C21 11.0854 20.79 10.5614 20.424 10.1854Z" fill="#9295A6"/>
</g>
</svg>
