<svg width="24" height="24" viewBox="0 0 24 24" fill="none" xmlns="http://www.w3.org/2000/svg">
<g id="Property 1=Withdrawn, Property 2=Off">
<path id="Mask" fill-rule="evenodd" clip-rule="evenodd" d="M8.00138 7.99999C7.69638 7.99999 7.39738 7.86199 7.20038 7.59999C6.86838 7.15799 6.95838 6.53099 7.40038 6.19999L11.4004 3.19999C11.7464 2.93999 12.2224 2.93299 12.5754 3.18199L16.5754 5.99599C17.0274 6.31399 17.1364 6.93799 16.8184 7.38899C16.5004 7.83999 15.8774 7.94999 15.4254 7.63199L12.9971 5.92381C12.999 5.94896 13 5.97437 13 6V14C13 14.552 12.553 15 12 15C11.447 15 11 14.552 11 14V6.00045L8.60038 7.79999C8.42038 7.93499 8.21038 7.99999 8.00138 7.99999ZM18 18V17C18 16.45 18.45 16 19 16C19.55 16 20 16.45 20 17V19C20 19.55 19.55 20 19 20H5C4.45 20 4 19.55 4 19V17C4 16.45 4.45 16 5 16C5.55 16 6 16.45 6 17V18H18Z" fill="#9295A6"/>
</g>
</svg>
