<svg width="24" height="24" viewBox="0 0 24 24" fill="none" xmlns="http://www.w3.org/2000/svg">
<g id="Property 1=Up Arrow, Property 2=Default">
<path id="Mask" d="M8.40565 14.8012C8.04222 15.1047 7.50221 15.0549 7.19878 14.6915C6.89535 14.3281 6.94506 13.7872 7.3085 13.4846L11.5943 9.19886C11.6346 9.16457 11.6826 9.14829 11.7271 9.12257C11.7623 9.102 11.7931 9.078 11.8317 9.06257C11.932 9.02314 12.0366 9 12.1428 9C12.2491 9 12.3537 9.02314 12.454 9.06257C12.4926 9.078 12.5234 9.102 12.5586 9.12257C12.6031 9.14829 12.6511 9.16457 12.6914 9.19886L16.9772 13.4846C17.3415 13.7872 17.3903 14.3281 17.0869 14.6915C16.7843 15.0549 16.2443 15.1047 15.88 14.8012L13 11.6872L12.1429 10.8301L11.2838 11.6893L8.40565 14.8012Z" fill="#9295A6"/>
</g>
</svg>
