<svg width="24" height="24" viewBox="0 0 24 24" fill="none" xmlns="http://www.w3.org/2000/svg">
<g id="Property 1=layout, Property 2=Default">
<path id="Mask" fill-rule="evenodd" clip-rule="evenodd" d="M18.6669 19.7778H13.1113V9.77777H19.778V18.6667C19.778 19.28 19.2791 19.7778 18.6669 19.7778ZM4.22266 18.6667V9.77777H10.8893V19.7778H5.33377C4.72155 19.7778 4.22266 19.28 4.22266 18.6667ZM5.33377 4.22223H18.6671C19.2793 4.22223 19.7782 4.72001 19.7782 5.33334V7.55556H4.22266V5.33334C4.22266 4.72001 4.72155 4.22223 5.33377 4.22223ZM18.6667 2H5.33333C3.49556 2 2 3.49556 2 5.33333V8.46444V8.86889V18.6667C2 20.5044 3.49556 22 5.33333 22H18.6667C20.5044 22 22 20.5044 22 18.6667V8.86889V8.46444V5.33333C22 3.49556 20.5044 2 18.6667 2Z" fill="#9295A6"/>
</g>
</svg>
