<svg width="24" height="24" viewBox="0 0 24 24" fill="none" xmlns="http://www.w3.org/2000/svg">
<g id="Property 1=Log-out, Property 2=On">
<path id="Mask" fill-rule="evenodd" clip-rule="evenodd" d="M8 5C8 5.55 7.55 6 7 6H6V18H7C7.55 18 8 18.45 8 19C8 19.55 7.55 20 7 20H5C4.45 20 4 19.55 4 19V5C4 4.45 4.45 4 5 4H7C7.55 4 8 4.45 8 5ZM18.004 7.42467L20.818 11.4247C21.068 11.7787 21.06 12.2537 20.8 12.5997L17.8 16.5997C17.604 16.8617 17.303 16.9997 16.999 16.9997C16.791 16.9997 16.58 16.9347 16.4 16.7997C15.958 16.4687 15.869 15.8417 16.2 15.4007L18.001 12.9997H18H10C9.448 12.9997 9 12.5527 9 11.9997C9 11.4467 9.448 10.9997 10 10.9997H18C18.0165 10.9997 18.0318 11.0042 18.0473 11.0088C18.0599 11.0126 18.0725 11.0163 18.086 11.0177L16.368 8.57467C16.05 8.12367 16.159 7.49967 16.611 7.18167C17.062 6.86267 17.686 6.97267 18.004 7.42467Z" fill="#5367FF"/>
</g>
</svg>
