<svg width="24" height="24" viewBox="0 0 24 24" fill="none" xmlns="http://www.w3.org/2000/svg">
<g id="Property 1=Right Arrow, Property 2=Active">
<path id="Mask" d="M14.9438 8.26308C15.2472 7.89964 15.1975 7.35964 14.8341 7.0562C14.4706 6.75277 13.9298 6.80249 13.6272 7.16592L9.34144 11.4517C9.30715 11.492 9.29087 11.54 9.26515 11.5845C9.24458 11.6197 9.22058 11.6505 9.20515 11.6891C9.16572 11.7894 9.14258 11.894 9.14258 12.0003C9.14258 12.1066 9.16572 12.2111 9.20515 12.3114C9.22058 12.35 9.24458 12.3808 9.26515 12.416C9.29087 12.4606 9.30715 12.5086 9.34144 12.5488L13.6272 16.8346C13.9298 17.1989 14.4706 17.2478 14.8341 16.9443C15.1975 16.6418 15.2472 16.1018 14.9438 15.7375L11.8298 12.8574L10.9727 12.0003L11.8318 11.1412L14.9438 8.26308Z" fill="#5367FF"/>
</g>
</svg>
