<svg width="24" height="24" viewBox="0 0 24 24" fill="none" xmlns="http://www.w3.org/2000/svg">
<g id="Property 1=Hide Icon, Property 2=On">
<path id="Mask" fill-rule="evenodd" clip-rule="evenodd" d="M12 13.5C11.173 13.5 10.5 12.827 10.5 12C10.5 11.173 11.173 10.5 12 10.5C12.827 10.5 13.5 11.173 13.5 12C13.5 12.827 12.827 13.5 12 13.5ZM12 8.50002C10.07 8.50002 8.50005 10.07 8.50005 12C8.50005 13.93 10.07 15.5 12 15.5C13.93 15.5 15.5 13.93 15.5 12C15.5 10.07 13.93 8.50002 12 8.50002ZM12.2189 16.9974C7.91287 17.0974 5.10387 13.4144 4.17188 11.9954C5.19788 10.3904 7.78187 7.10436 11.7799 7.00236C16.0689 6.89336 18.8939 10.5854 19.8259 12.0044C18.8009 13.6094 16.2159 16.8954 12.2189 16.9974ZM21.8678 11.5026C21.2297 10.3906 17.7057 4.81662 11.7297 5.00362C6.20175 5.14362 2.98675 10.0136 2.13275 11.5026C1.95575 11.8106 1.95575 12.1896 2.13275 12.4976C2.76175 13.5946 6.16175 18.9996 12.0247 18.9996C12.1067 18.9996 12.1888 18.9986 12.2708 18.9966C17.7978 18.8556 21.0138 13.9866 21.8678 12.4976C22.0438 12.1896 22.0438 11.8106 21.8678 11.5026Z" fill="#9295A6"/>
</g>
</svg>
