<svg width="24" height="24" viewBox="0 0 24 24" fill="none" xmlns="http://www.w3.org/2000/svg">
<g id="Property 1=Setting, Property 2=On">
<path id="Mask" fill-rule="evenodd" clip-rule="evenodd" d="M4.40224 11.622C5.51824 12.005 6.40724 12.939 6.77924 14.123L6.81924 14.243C7.24524 15.499 7.07224 16.851 6.35824 17.865C6.22824 18.049 6.25724 18.269 6.39424 18.373L8.46624 19.947C8.53924 20.002 8.61024 20.002 8.65424 19.997C8.70424 19.989 8.77724 19.962 8.83624 19.878L9.06724 19.55C9.75624 18.573 10.8662 17.97 12.0382 17.936C13.3542 17.909 14.5362 18.512 15.2722 19.575L15.3902 19.746C15.4492 19.83 15.5212 19.858 15.5722 19.866C15.6162 19.875 15.6882 19.872 15.7602 19.816L17.8212 18.261C17.9652 18.153 17.9972 17.922 17.8902 17.767L17.6302 17.392C16.9602 16.424 16.7612 15.168 17.0982 14.033C17.4642 12.797 18.3952 11.819 19.5902 11.419L19.7912 11.351C19.9522 11.298 20.0392 11.098 19.9822 10.914L19.1952 8.393C19.1582 8.275 19.0822 8.222 19.0402 8.2C18.9802 8.169 18.9152 8.164 18.8532 8.185L18.5132 8.298C17.3502 8.685 16.0672 8.475 15.0822 7.734L14.9742 7.653C14.0382 6.949 13.4812 5.814 13.4852 4.618L13.4872 4.338C13.4872 4.205 13.4242 4.122 13.3862 4.084C13.3502 4.047 13.2892 4.003 13.2032 4.003L10.6562 4C10.5002 4 10.3732 4.149 10.3722 4.333L10.3712 4.575C10.3662 5.79 9.79724 6.946 8.84924 7.669L8.72024 7.767C7.67724 8.56 6.31724 8.784 5.08524 8.364C5.03824 8.348 4.99424 8.351 4.95224 8.373C4.92024 8.389 4.86224 8.43 4.83424 8.521L4.01724 11.117C3.95824 11.306 4.05524 11.503 4.23824 11.566L4.40224 11.622ZM8.61362 22C8.12762 22 7.65562 21.842 7.25762 21.539L5.18562 19.966C4.19562 19.216 3.97662 17.773 4.69662 16.75C5.07062 16.22 5.14762 15.539 4.92762 14.893L4.87262 14.725C4.68962 14.143 4.27162 13.691 3.75462 13.514H3.75362L3.59062 13.457C2.37262 13.04 1.72262 11.749 2.10962 10.517L2.92562 7.922C3.11062 7.335 3.50962 6.861 4.04962 6.588C4.57762 6.322 5.17462 6.281 5.73262 6.472C6.33162 6.676 6.99662 6.565 7.50962 6.175L7.63862 6.077C8.09462 5.729 8.36962 5.164 8.37162 4.567L8.37262 4.326C8.37762 3.042 9.40262 2 10.6556 2H10.6596L13.2066 2.003C13.8086 2.004 14.3766 2.242 14.8046 2.673C15.2476 3.118 15.4896 3.713 15.4876 4.348L15.4856 4.627C15.4836 5.193 15.7426 5.728 16.1796 6.056L16.2866 6.137C16.7456 6.482 17.3436 6.581 17.8806 6.401L18.2196 6.288C18.7966 6.096 19.4106 6.143 19.9516 6.42C20.5066 6.704 20.9166 7.193 21.1046 7.798L21.8916 10.319C22.2716 11.537 21.6136 12.851 20.4266 13.248L20.2256 13.315C19.6496 13.509 19.1966 13.989 19.0156 14.601C18.8496 15.162 18.9456 15.779 19.2746 16.253L19.5346 16.628C20.2486 17.66 20.0206 19.108 19.0266 19.857L16.9656 21.413C16.4706 21.787 15.8636 21.938 15.2546 21.841C14.6406 21.742 14.1046 21.402 13.7456 20.884L13.6276 20.712C13.2776 20.208 12.7176 19.902 12.1306 19.935C11.5426 19.951 11.0346 20.23 10.7026 20.702L10.4716 21.03C10.1096 21.543 9.57262 21.878 8.96162 21.974C8.84462 21.992 8.72862 22 8.61362 22ZM12 10.5C11.173 10.5 10.5 11.173 10.5 12C10.5 12.827 11.173 13.5 12 13.5C12.827 13.5 13.5 12.827 13.5 12C13.5 11.173 12.827 10.5 12 10.5ZM12 15.5C10.07 15.5 8.5 13.93 8.5 12C8.5 10.07 10.07 8.5 12 8.5C13.93 8.5 15.5 10.07 15.5 12C15.5 13.93 13.93 15.5 12 15.5Z" fill="#5367FF"/>
</g>
</svg>
