<svg width="25" height="24" viewBox="0 0 25 24" fill="none" xmlns="http://www.w3.org/2000/svg">
<g id="Property 1=Convert">
<path id="Mask" fill-rule="evenodd" clip-rule="evenodd" d="M6.09389 5.00025H18.7211C20.8042 5.00025 22.4999 6.58325 22.4999 8.52925V11.0002C22.4999 11.5533 22.0294 12.0002 21.4473 12.0002C20.8652 12.0002 20.3947 11.5533 20.3947 11.0002V8.52925C20.3947 7.68725 19.6442 7.00025 18.7211 7.00025H6.09389L7.45492 8.29325C7.86544 8.68425 7.86544 9.31625 7.45492 9.70725C7.24966 9.90225 6.98019 10.0002 6.71072 10.0002C6.44125 10.0002 6.17178 9.90225 5.96652 9.70725L2.80868 6.70725C2.39711 6.31625 2.39711 5.68425 2.80868 5.29325L5.96652 2.29325C6.37704 1.90225 7.04335 1.90225 7.45492 2.29325C7.86544 2.68425 7.86544 3.31625 7.45492 3.70725L6.09389 5.00025ZM17.545 14.2935C17.9566 13.9025 18.6218 13.9025 19.0334 14.2935L22.1913 17.2935C22.6028 17.6845 22.6028 18.3165 22.1913 18.7075L19.0334 21.7075C18.8282 21.9025 18.5587 22.0005 18.2892 22.0005C18.0198 22.0005 17.7503 21.9025 17.545 21.7075C17.1335 21.3165 17.1335 20.6845 17.545 20.2935L18.9061 19.0005H6.27889C4.19471 19.0005 2.5 17.4175 2.5 15.4715V13.0005C2.5 12.4475 2.97157 12.0005 3.55262 12.0005C4.13366 12.0005 4.60523 12.4475 4.60523 13.0005V15.4715C4.60523 16.3145 5.35574 17.0005 6.27889 17.0005H18.9061L17.545 15.7075C17.1335 15.3165 17.1335 14.6845 17.545 14.2935Z" fill="white"/>
</g>
</svg>
