<svg width="24" height="24" viewBox="0 0 24 24" fill="none" xmlns="http://www.w3.org/2000/svg">
<g id="Property 1=Edit Icon, Property 2=On">
<path id="Mask" fill-rule="evenodd" clip-rule="evenodd" d="M11.9826 7.3233L6.36562 12.9403L6.10162 15.8963L9.07862 15.6253L14.6786 10.0193L11.9826 7.3233ZM17.9673 6.72916L15.2723 4.03516L13.3243 5.98316L16.0193 8.67916L17.9673 6.72916ZM5.0912 17.9963C5.0602 17.9993 5.0302 18.0003 5.0002 18.0003C4.7362 18.0003 4.4812 17.8963 4.2932 17.7073C4.0832 17.4973 3.9772 17.2053 4.0042 16.9103L4.3832 12.7393C4.4252 12.2823 4.6272 11.8513 4.9522 11.5263L13.9482 2.5293C14.6502 1.8253 15.9242 1.8603 16.6642 2.5993L19.4022 5.3373H19.4032C20.1692 6.1043 20.1992 7.3213 19.4712 8.0513L10.4742 17.0483C10.1492 17.3743 9.7192 17.5753 9.2612 17.6173L5.0912 17.9963ZM5 20.0004H19C19.55 20.0004 20 20.4504 20 21.0004C20 21.5504 19.55 22.0004 19 22.0004H5C4.45 22.0004 4 21.5504 4 21.0004C4 20.4504 4.45 20.0004 5 20.0004Z" fill="#5367FF"/>
</g>
</svg>
