<svg width="24" height="24" viewBox="0 0 24 24" fill="none" xmlns="http://www.w3.org/2000/svg">
<g id="Property 1=Google, Property 2=Off">
<path id="Mask" fill-rule="evenodd" clip-rule="evenodd" d="M12.0034 4C9.82142 4 7.78343 4.861 6.26343 6.426C4.74343 7.989 3.94142 10.052 4.00443 12.235C4.12142 16.339 7.55343 19.818 11.6534 19.992C16.0354 20.165 19.7724 16.78 19.9954 12.419C20.0024 12.291 20.0014 11.726 19.9994 11.2H12.9974V12.782H18.3064L17.9014 14.08C17.1804 16.394 15.3524 17.982 13.0114 18.328C11.2654 18.581 9.44642 18.082 8.02343 16.945C6.62643 15.832 5.75043 14.214 5.61843 12.505C5.48043 10.698 6.07743 8.976 7.30343 7.653C8.96943 5.853 11.6624 5.16 13.9704 5.909L14.7434 4.48C13.8684 4.161 12.9494 4 12.0034 4ZM11.9961 21.999C11.8551 21.999 11.7121 21.996 11.5691 21.99C6.44113 21.773 2.15113 17.423 2.00413 12.292C1.92713 9.564 2.92913 6.986 4.82813 5.032C6.72913 3.077 9.27613 2 12.0031 2C13.4371 2 14.8231 2.298 16.1221 2.885C16.4831 3.048 16.7641 3.358 16.8911 3.736C17.0201 4.119 16.9841 4.543 16.7921 4.898L15.5001 7.282C15.1491 7.934 14.3571 8.214 13.6651 7.925C12.0121 7.252 9.99213 7.692 8.77013 9.012C7.92813 9.921 7.51713 11.107 7.61213 12.351C7.70213 13.509 8.30613 14.613 9.27013 15.382C10.2641 16.175 11.5261 16.528 12.7181 16.35C13.8181 16.187 14.7301 15.635 15.3501 14.782H12.4471C11.6481 14.782 10.9971 14.132 10.9971 13.332V10.65C10.9971 9.851 11.6481 9.2 12.4471 9.2H20.5471C21.3401 9.2 21.9911 9.845 21.9971 10.638C22.0001 11.269 22.0021 12.336 21.9931 12.52C21.7201 17.832 17.2771 21.999 11.9961 21.999Z" fill="#9295A6"/>
</g>
</svg>
