<svg width="24" height="24" viewBox="0 0 24 24" fill="none" xmlns="http://www.w3.org/2000/svg">
<g id="Property 1=Market, Property 2=Off">
<path id="Mask" fill-rule="evenodd" clip-rule="evenodd" d="M6.87109 12.7998H12.0001C12.2841 12.7998 12.5551 12.9208 12.7441 13.1318C12.9331 13.3428 13.0241 13.6248 12.9941 13.9068L12.5451 18.0568L17.1291 11.1998H12.0001C11.7161 11.1998 11.4451 11.0788 11.2561 10.8678C11.0661 10.6568 10.9751 10.3748 11.0061 10.0928L11.4551 5.94385L6.87109 12.7998ZM11.1109 22.9997C10.9969 22.9997 10.8819 22.9807 10.7689 22.9397C10.3369 22.7817 10.0669 22.3497 10.1169 21.8927L10.8859 14.7997H4.99987C4.63087 14.7997 4.29187 14.5967 4.11787 14.2717C3.94387 13.9457 3.96387 13.5507 4.16887 13.2437L12.0579 1.44474C12.3129 1.06074 12.7969 0.902737 13.2299 1.06074C13.6629 1.21774 13.9329 1.65074 13.8829 2.10774L13.1139 9.19974H18.9999C19.3689 9.19974 19.7079 9.40374 19.8819 9.72874C20.0559 10.0547 20.0359 10.4487 19.8309 10.7557L11.9419 22.5557C11.7529 22.8397 11.4369 22.9997 11.1109 22.9997Z" fill="#9295A6"/>
</g>
</svg>
