<svg width="24" height="24" viewBox="0 0 24 24" fill="none" xmlns="http://www.w3.org/2000/svg">
<g id="Property 1=Log-in, Property 2=Off">
<path id="Mask" fill-rule="evenodd" clip-rule="evenodd" d="M17 4H19C19.55 4 20 4.45 20 5V19C20 19.55 19.55 20 19 20H17C16.45 20 16 19.55 16 19C16 18.45 16.45 18 17 18H18V6H17C16.45 6 16 5.55 16 5C16 4.45 16.45 4 17 4ZM10.4 7.20063C10.844 6.86963 11.469 6.95963 11.8 7.40063L14.8 11.4006C15.06 11.7466 15.068 12.2206 14.818 12.5756L12.004 16.5756C11.809 16.8526 11.5 17.0006 11.185 17.0006C10.987 17.0006 10.786 16.9416 10.611 16.8186C10.159 16.5006 10.05 15.8766 10.368 15.4246L12.086 12.9826C12.0725 12.984 12.0599 12.9877 12.0473 12.9915C12.0318 12.9961 12.0165 13.0006 12 13.0006H4C3.448 13.0006 3 12.5526 3 12.0006C3 11.4476 3.448 11.0006 4 11.0006H12H12.001L10.2 8.59963C9.869 8.15863 9.958 7.53163 10.4 7.20063Z" fill="#9295A6"/>
</g>
</svg>
