<svg width="24" height="24" viewBox="0 0 24 24" fill="none" xmlns="http://www.w3.org/2000/svg">
<g id="Property 1=Full View, Property 2=On">
<path id="Mask" fill-rule="evenodd" clip-rule="evenodd" d="M19.002 4.025C19.552 4.028 19.997 4.474 19.997 5.024L20 9.999C20.001 10.551 19.553 11 19.001 11H19C18.448 11 18.001 10.552 18 10.001L17.998 7.416L14.707 10.707C14.512 10.902 14.256 11 14 11C13.745 11 13.489 10.902 13.293 10.707C12.903 10.316 12.903 9.683 13.293 9.293L16.573 6.013L13.996 6C13.443 5.997 12.997 5.546 13 4.995C13.003 4.444 13.451 4 14 4H14.005L19.002 4.025ZM9.29302 13.2928C9.68401 12.9018 10.316 12.9018 10.707 13.2928C11.098 13.6838 11.098 14.3158 10.707 14.7068L7.41501 17.9988L10 17.9998C10.553 17.9998 11 18.4478 11 19.0008C10.999 19.5528 10.552 19.9998 10 19.9998H9.99901L5.02402 19.9968C4.47402 19.9968 4.02802 19.5518 4.02502 19.0018L4.00002 14.0048C3.99702 13.4528 4.44302 13.0028 4.99502 12.9998H5.00002C5.55001 12.9998 5.99701 13.4438 6.00002 13.9948L6.01302 16.5728L9.29302 13.2928Z" fill="#5367FF"/>
</g>
</svg>
