<svg width="24" height="24" viewBox="0 0 24 24" fill="none" xmlns="http://www.w3.org/2000/svg">
<g id="Property 1=Global, Property 2=Default">
<path id="Mask" fill-rule="evenodd" clip-rule="evenodd" d="M16.889 18.318C16.717 17.885 16.473 17.507 16.259 17.184C16.151 17.022 16.04 16.857 15.943 16.687C15.554 16.011 15.688 15.737 16.319 14.68L16.421 14.507C16.932 13.646 16.96 12.82 16.986 12.092C16.998 11.734 17.01 11.397 17.079 11.08C17.24 10.348 18.787 10.153 19.746 10.038C19.907 10.667 20 11.322 20 12C20 14.569 18.778 16.853 16.889 18.318ZM4.96289 15.799C5.59889 15.961 6.28789 16.073 6.98889 16.073C8.06889 16.073 9.17189 15.809 10.1259 15.062C11.8419 13.72 11.8419 12.004 11.8419 10.624C11.8419 9.732 11.8419 8.963 12.2139 8.28C12.4139 7.914 12.8399 7.66 13.3329 7.365C13.6349 7.184 13.9479 6.998 14.2479 6.762C14.8909 6.259 15.3689 5.612 15.6649 4.896C17.0649 5.621 18.2249 6.744 18.9909 8.119C17.5629 8.317 15.5359 8.785 15.1269 10.652C15.0189 11.146 15.0019 11.611 14.9889 12.022C14.9679 12.605 14.9519 13.066 14.7019 13.488L14.6019 13.656C13.9549 14.739 13.2229 15.967 14.2099 17.684C14.3289 17.892 14.4619 18.092 14.5929 18.291C14.9369 18.807 15.1059 19.092 15.1069 19.372C14.1519 19.776 13.1019 20 12.0009 20C8.96389 20 6.31789 18.298 4.96289 15.799ZM12 4C12.616 4 13.211 4.076 13.787 4.208C13.618 4.58 13.357 4.919 13.013 5.188C12.795 5.36 12.55 5.503 12.307 5.648C11.656 6.036 10.919 6.476 10.457 7.322C9.841 8.452 9.841 9.606 9.841 10.624C9.841 11.979 9.797 12.78 8.893 13.487C7.524 14.56 5.429 13.961 4.133 13.416C4.051 12.955 4 12.483 4 12C4 7.589 7.589 4 12 4ZM12 2C6.486 2 2 6.486 2 12C2 17.513 6.486 22 12 22C17.514 22 22 17.513 22 12C22 6.486 17.514 2 12 2Z" fill="#9295A6"/>
</g>
</svg>
