<svg width="24" height="24" viewBox="0 0 24 24" fill="none" xmlns="http://www.w3.org/2000/svg">
<g id="Property 1=Left Arrow, Property 2=Active">
<path id="Mask" d="M9.34136 15.7369C9.03793 16.1004 9.08764 16.6404 9.45108 16.9438C9.81451 17.2472 10.3554 17.1975 10.6579 16.8341L14.9437 12.5483C14.978 12.508 14.9943 12.46 15.02 12.4155C15.0406 12.3803 15.0646 12.3495 15.08 12.3109C15.1194 12.2106 15.1426 12.106 15.1426 11.9997C15.1426 11.8934 15.1194 11.7889 15.08 11.6886C15.0646 11.65 15.0406 11.6192 15.02 11.584C14.9943 11.5394 14.978 11.4914 14.9437 11.4512L10.6579 7.16538C10.3554 6.80109 9.81451 6.75224 9.45108 7.05567C9.08764 7.35824 9.03793 7.89825 9.34136 8.26254L12.4554 11.1426L13.3125 11.9997L12.4533 12.8588L9.34136 15.7369Z" fill="#5367FF"/>
</g>
</svg>
